<mxfile host="drawio-plugin" modified="2024-10-11T03:56:37.386Z" agent="Mozilla/5.0 (Windows NT 10.0; Win64; x64) AppleWebKit/537.36 (KHTML, like Gecko) Chrome/111.0.0.0 Safari/537.36" version="22.1.22" etag="Og9Px418vwrN9MKohtLH" type="embed">
  <diagram id="I32PFHtFHXwe_9CqFEtz" name="Page-1">
    <mxGraphModel dx="912" dy="936" grid="1" gridSize="10" guides="1" tooltips="1" connect="1" arrows="1" fold="1" page="0" pageScale="1" pageWidth="850" pageHeight="1100" background="none" math="0" shadow="0">
      <root>
        <mxCell id="0" />
        <mxCell id="1" parent="0" />
        <mxCell id="node155" value="&lt;p style=&quot;margin:0px;margin-top:4px;text-align:center;&quot;&gt;&lt;b&gt;APIResponse&lt;T&gt;&lt;/b&gt;&lt;/p&gt;&lt;hr size=&quot;1&quot;/&gt;" style="verticalAlign=top;align=left;overflow=fill;fontSize=14;fontFamily=Helvetica;html=1;rounded=1;shadow=0;comic=0;labelBackgroundColor=none;strokeWidth=1;fillColor=#21C0A5;strokeColor=#006658;fontColor=#5C5C5C;" parent="1" vertex="1">
          <mxGeometry x="-44" y="259" width="158" height="27" as="geometry" />
        </mxCell>
        <mxCell id="node94" value="&lt;p style=&quot;margin:0px;margin-top:4px;text-align:center;&quot;&gt;&lt;b&gt;ActivityLog&lt;/b&gt;&lt;/p&gt;&lt;hr size=&quot;1&quot;/&gt;" style="verticalAlign=top;align=left;overflow=fill;fontSize=14;fontFamily=Helvetica;html=1;rounded=1;shadow=0;comic=0;labelBackgroundColor=none;strokeWidth=1;fillColor=#21C0A5;strokeColor=#006658;fontColor=#5C5C5C;" parent="1" vertex="1">
          <mxGeometry x="135" y="1179" width="120" height="27" as="geometry" />
        </mxCell>
        <mxCell id="node90" value="&lt;p style=&quot;margin:0px;margin-top:4px;text-align:center;&quot;&gt;&lt;b&gt;ActivityLogController&lt;/b&gt;&lt;/p&gt;&lt;hr size=&quot;1&quot;/&gt;" style="verticalAlign=top;align=left;overflow=fill;fontSize=14;fontFamily=Helvetica;html=1;rounded=1;shadow=0;comic=0;labelBackgroundColor=none;strokeWidth=1;fillColor=#21C0A5;strokeColor=#006658;fontColor=#5C5C5C;" parent="1" vertex="1">
          <mxGeometry x="88" y="2419" width="174" height="27" as="geometry" />
        </mxCell>
        <mxCell id="node99" value="&lt;p style=&quot;margin:0px;margin-top:4px;text-align:center;&quot;&gt;&lt;i&gt;&amp;lt;&amp;lt;interface&amp;gt;&amp;gt;&lt;/i&gt;&lt;br/&gt;&lt;b&gt;ActivityLogRepository&lt;/b&gt;&lt;/p&gt;&lt;hr size=&quot;1&quot;/&gt;" style="verticalAlign=top;align=left;overflow=fill;fontSize=14;fontFamily=Helvetica;html=1;rounded=1;shadow=0;comic=0;labelBackgroundColor=none;strokeWidth=1;fillColor=#21C0A5;strokeColor=#006658;fontColor=#5C5C5C;" parent="1" vertex="1">
          <mxGeometry x="222" y="879" width="186" height="31" as="geometry" />
        </mxCell>
        <mxCell id="node29" value="&lt;p style=&quot;margin:0px;margin-top:4px;text-align:center;&quot;&gt;&lt;b&gt;ActivityLogRequest&lt;/b&gt;&lt;/p&gt;&lt;hr size=&quot;1&quot;/&gt;" style="verticalAlign=top;align=left;overflow=fill;fontSize=14;fontFamily=Helvetica;html=1;rounded=1;shadow=0;comic=0;labelBackgroundColor=none;strokeWidth=1;fillColor=#21C0A5;strokeColor=#006658;fontColor=#5C5C5C;" parent="1" vertex="1">
          <mxGeometry x="450" y="539" width="170" height="27" as="geometry" />
        </mxCell>
        <mxCell id="node114" value="&lt;p style=&quot;margin:0px;margin-top:4px;text-align:center;&quot;&gt;&lt;b&gt;ActivityLogResponse&lt;/b&gt;&lt;/p&gt;&lt;hr size=&quot;1&quot;/&gt;" style="verticalAlign=top;align=left;overflow=fill;fontSize=14;fontFamily=Helvetica;html=1;rounded=1;shadow=0;comic=0;labelBackgroundColor=none;strokeWidth=1;fillColor=#21C0A5;strokeColor=#006658;fontColor=#5C5C5C;" parent="1" vertex="1">
          <mxGeometry x="-135" y="739" width="181" height="27" as="geometry" />
        </mxCell>
        <mxCell id="node116" value="&lt;p style=&quot;margin:0px;margin-top:4px;text-align:center;&quot;&gt;&lt;i&gt;&amp;lt;&amp;lt;interface&amp;gt;&amp;gt;&lt;/i&gt;&lt;br/&gt;&lt;b&gt;ActivityLogService&lt;/b&gt;&lt;/p&gt;&lt;hr size=&quot;1&quot;/&gt;" style="verticalAlign=top;align=left;overflow=fill;fontSize=14;fontFamily=Helvetica;html=1;rounded=1;shadow=0;comic=0;labelBackgroundColor=none;strokeWidth=1;fillColor=#21C0A5;strokeColor=#006658;fontColor=#5C5C5C;" parent="1" vertex="1">
          <mxGeometry x="153" y="2739" width="165" height="31" as="geometry" />
        </mxCell>
        <mxCell id="node108" value="&lt;p style=&quot;margin:0px;margin-top:4px;text-align:center;&quot;&gt;&lt;b&gt;ActivityLogServiceImpl&lt;/b&gt;&lt;/p&gt;&lt;hr size=&quot;1&quot;/&gt;" style="verticalAlign=top;align=left;overflow=fill;fontSize=14;fontFamily=Helvetica;html=1;rounded=1;shadow=0;comic=0;labelBackgroundColor=none;strokeWidth=1;fillColor=#21C0A5;strokeColor=#006658;fontColor=#5C5C5C;" parent="1" vertex="1">
          <mxGeometry x="140" y="2839" width="190" height="27" as="geometry" />
        </mxCell>
        <mxCell id="node37" value="&lt;p style=&quot;margin:0px;margin-top:4px;text-align:center;&quot;&gt;&lt;b&gt;Address&lt;/b&gt;&lt;/p&gt;&lt;hr size=&quot;1&quot;/&gt;" style="verticalAlign=top;align=left;overflow=fill;fontSize=14;fontFamily=Helvetica;html=1;rounded=1;shadow=0;comic=0;labelBackgroundColor=none;strokeWidth=1;fillColor=#21C0A5;strokeColor=#006658;fontColor=#5C5C5C;" parent="1" vertex="1">
          <mxGeometry x="504" y="1779" width="102" height="27" as="geometry" />
        </mxCell>
        <mxCell id="node122" value="&lt;p style=&quot;margin:0px;margin-top:4px;text-align:center;&quot;&gt;&lt;i&gt;&amp;lt;&amp;lt;interface&amp;gt;&amp;gt;&lt;/i&gt;&lt;br/&gt;&lt;b&gt;AddressRepository&lt;/b&gt;&lt;/p&gt;&lt;hr size=&quot;1&quot;/&gt;" style="verticalAlign=top;align=left;overflow=fill;fontSize=14;fontFamily=Helvetica;html=1;rounded=1;shadow=0;comic=0;labelBackgroundColor=none;strokeWidth=1;fillColor=#21C0A5;strokeColor=#006658;fontColor=#5C5C5C;" parent="1" vertex="1">
          <mxGeometry x="311" y="1579" width="168" height="31" as="geometry" />
        </mxCell>
        <mxCell id="node24" value="&lt;p style=&quot;margin:0px;margin-top:4px;text-align:center;&quot;&gt;&lt;b&gt;AddressResponse&lt;/b&gt;&lt;/p&gt;&lt;hr size=&quot;1&quot;/&gt;" style="verticalAlign=top;align=left;overflow=fill;fontSize=14;fontFamily=Helvetica;html=1;rounded=1;shadow=0;comic=0;labelBackgroundColor=none;strokeWidth=1;fillColor=#21C0A5;strokeColor=#006658;fontColor=#5C5C5C;" parent="1" vertex="1">
          <mxGeometry x="354" y="3659" width="162" height="27" as="geometry" />
        </mxCell>
        <mxCell id="node83" value="&lt;p style=&quot;margin:0px;margin-top:4px;text-align:center;&quot;&gt;&lt;i&gt;&amp;lt;&amp;lt;enumeration&amp;gt;&amp;gt;&lt;/i&gt;&lt;br/&gt;&lt;b&gt;AddressType&lt;/b&gt;&lt;/p&gt;&lt;hr size=&quot;1&quot;/&gt;" style="verticalAlign=top;align=left;overflow=fill;fontSize=14;fontFamily=Helvetica;html=1;rounded=1;shadow=0;comic=0;labelBackgroundColor=none;strokeWidth=1;fillColor=#21C0A5;strokeColor=#006658;fontColor=#5C5C5C;" parent="1" vertex="1">
          <mxGeometry x="129" y="3659" width="132" height="31" as="geometry" />
        </mxCell>
        <mxCell id="node138" value="&lt;p style=&quot;margin:0px;margin-top:4px;text-align:center;&quot;&gt;&lt;b&gt;AppDetailsService&lt;/b&gt;&lt;/p&gt;&lt;hr size=&quot;1&quot;/&gt;" style="verticalAlign=top;align=left;overflow=fill;fontSize=14;fontFamily=Helvetica;html=1;rounded=1;shadow=0;comic=0;labelBackgroundColor=none;strokeWidth=1;fillColor=#21C0A5;strokeColor=#006658;fontColor=#5C5C5C;" parent="1" vertex="1">
          <mxGeometry x="54" y="459" width="162" height="27" as="geometry" />
        </mxCell>
        <mxCell id="node95" value="&lt;p style=&quot;margin:0px;margin-top:4px;text-align:center;&quot;&gt;&lt;b&gt;AuthenticationController&lt;/b&gt;&lt;/p&gt;&lt;hr size=&quot;1&quot;/&gt;" style="verticalAlign=top;align=left;overflow=fill;fontSize=14;fontFamily=Helvetica;html=1;rounded=1;shadow=0;comic=0;labelBackgroundColor=none;strokeWidth=1;fillColor=#21C0A5;strokeColor=#006658;fontColor=#5C5C5C;" parent="1" vertex="1">
          <mxGeometry x="314" y="2579" width="202" height="27" as="geometry" />
        </mxCell>
        <mxCell id="node143" value="&lt;p style=&quot;margin:0px;margin-top:4px;text-align:center;&quot;&gt;&lt;i&gt;&amp;lt;&amp;lt;interface&amp;gt;&amp;gt;&lt;/i&gt;&lt;br/&gt;&lt;b&gt;AuthenticationService&lt;/b&gt;&lt;/p&gt;&lt;hr size=&quot;1&quot;/&gt;" style="verticalAlign=top;align=left;overflow=fill;fontSize=14;fontFamily=Helvetica;html=1;rounded=1;shadow=0;comic=0;labelBackgroundColor=none;strokeWidth=1;fillColor=#21C0A5;strokeColor=#006658;fontColor=#5C5C5C;" parent="1" vertex="1">
          <mxGeometry x="62" y="3459" width="186" height="31" as="geometry" />
        </mxCell>
        <mxCell id="node162" value="&lt;p style=&quot;margin:0px;margin-top:4px;text-align:center;&quot;&gt;&lt;b&gt;AuthenticationServiceImpl&lt;/b&gt;&lt;/p&gt;&lt;hr size=&quot;1&quot;/&gt;" style="verticalAlign=top;align=left;overflow=fill;fontSize=14;fontFamily=Helvetica;html=1;rounded=1;shadow=0;comic=0;labelBackgroundColor=none;strokeWidth=1;fillColor=#21C0A5;strokeColor=#006658;fontColor=#5C5C5C;" parent="1" vertex="1">
          <mxGeometry x="470" y="3719" width="211" height="27" as="geometry" />
        </mxCell>
        <mxCell id="node71" value="&lt;p style=&quot;margin:0px;margin-top:4px;text-align:center;&quot;&gt;&lt;b&gt;AuthorizationController&lt;/b&gt;&lt;/p&gt;&lt;hr size=&quot;1&quot;/&gt;" style="verticalAlign=top;align=left;overflow=fill;fontSize=14;fontFamily=Helvetica;html=1;rounded=1;shadow=0;comic=0;labelBackgroundColor=none;strokeWidth=1;fillColor=#21C0A5;strokeColor=#006658;fontColor=#5C5C5C;" parent="1" vertex="1">
          <mxGeometry x="298" y="1179" width="195" height="27" as="geometry" />
        </mxCell>
        <mxCell id="node74" value="&lt;p style=&quot;margin:0px;margin-top:4px;text-align:center;&quot;&gt;&lt;b&gt;Bank&lt;/b&gt;&lt;/p&gt;&lt;hr size=&quot;1&quot;/&gt;" style="verticalAlign=top;align=left;overflow=fill;fontSize=14;fontFamily=Helvetica;html=1;rounded=1;shadow=0;comic=0;labelBackgroundColor=none;strokeWidth=1;fillColor=#21C0A5;strokeColor=#006658;fontColor=#5C5C5C;" parent="1" vertex="1">
          <mxGeometry x="514" y="3519" width="82" height="27" as="geometry" />
        </mxCell>
        <mxCell id="node171" value="&lt;p style=&quot;margin:0px;margin-top:4px;text-align:center;&quot;&gt;&lt;i&gt;&amp;lt;&amp;lt;interface&amp;gt;&amp;gt;&lt;/i&gt;&lt;br/&gt;&lt;b&gt;BankRepository&lt;/b&gt;&lt;/p&gt;&lt;hr size=&quot;1&quot;/&gt;" style="verticalAlign=top;align=left;overflow=fill;fontSize=14;fontFamily=Helvetica;html=1;rounded=1;shadow=0;comic=0;labelBackgroundColor=none;strokeWidth=1;fillColor=#21C0A5;strokeColor=#006658;fontColor=#5C5C5C;" parent="1" vertex="1">
          <mxGeometry x="-139" y="2259" width="148" height="31" as="geometry" />
        </mxCell>
        <mxCell id="node14" value="&lt;p style=&quot;margin:0px;margin-top:4px;text-align:center;&quot;&gt;&lt;b&gt;BaseExceptionHandler&lt;/b&gt;&lt;/p&gt;&lt;hr size=&quot;1&quot;/&gt;" style="verticalAlign=top;align=left;overflow=fill;fontSize=14;fontFamily=Helvetica;html=1;rounded=1;shadow=0;comic=0;labelBackgroundColor=none;strokeWidth=1;fillColor=#21C0A5;strokeColor=#006658;fontColor=#5C5C5C;" parent="1" vertex="1">
          <mxGeometry x="660" y="2839" width="190" height="27" as="geometry" />
        </mxCell>
        <mxCell id="node103" value="&lt;p style=&quot;margin:0px;margin-top:4px;text-align:center;&quot;&gt;&lt;b&gt;BirthdayReminderController&lt;/b&gt;&lt;/p&gt;&lt;hr size=&quot;1&quot;/&gt;" style="verticalAlign=top;align=left;overflow=fill;fontSize=14;fontFamily=Helvetica;html=1;rounded=1;shadow=0;comic=0;labelBackgroundColor=none;strokeWidth=1;fillColor=#21C0A5;strokeColor=#006658;fontColor=#5C5C5C;" parent="1" vertex="1">
          <mxGeometry x="144" y="2099" width="222" height="27" as="geometry" />
        </mxCell>
        <mxCell id="node96" value="&lt;p style=&quot;margin:0px;margin-top:4px;text-align:center;&quot;&gt;&lt;b&gt;BirthdayReminderService&lt;/b&gt;&lt;/p&gt;&lt;hr size=&quot;1&quot;/&gt;" style="verticalAlign=top;align=left;overflow=fill;fontSize=14;fontFamily=Helvetica;html=1;rounded=1;shadow=0;comic=0;labelBackgroundColor=none;strokeWidth=1;fillColor=#21C0A5;strokeColor=#006658;fontColor=#5C5C5C;" parent="1" vertex="1">
          <mxGeometry x="-7" y="2979" width="205" height="27" as="geometry" />
        </mxCell>
        <mxCell id="node130" value="&lt;p style=&quot;margin:0px;margin-top:4px;text-align:center;&quot;&gt;&lt;b&gt;CandidateNotFoundException&lt;/b&gt;&lt;/p&gt;&lt;hr size=&quot;1&quot;/&gt;" style="verticalAlign=top;align=left;overflow=fill;fontSize=14;fontFamily=Helvetica;html=1;rounded=1;shadow=0;comic=0;labelBackgroundColor=none;strokeWidth=1;fillColor=#21C0A5;strokeColor=#006658;fontColor=#5C5C5C;" parent="1" vertex="1">
          <mxGeometry x="-23" y="2899" width="237" height="27" as="geometry" />
        </mxCell>
        <mxCell id="node39" value="&lt;p style=&quot;margin:0px;margin-top:4px;text-align:center;&quot;&gt;&lt;b&gt;Certificate&lt;/b&gt;&lt;/p&gt;&lt;hr size=&quot;1&quot;/&gt;" style="verticalAlign=top;align=left;overflow=fill;fontSize=14;fontFamily=Helvetica;html=1;rounded=1;shadow=0;comic=0;labelBackgroundColor=none;strokeWidth=1;fillColor=#21C0A5;strokeColor=#006658;fontColor=#5C5C5C;" parent="1" vertex="1">
          <mxGeometry x="798" y="1339" width="114" height="27" as="geometry" />
        </mxCell>
        <mxCell id="node11" value="&lt;p style=&quot;margin:0px;margin-top:4px;text-align:center;&quot;&gt;&lt;b&gt;CertificateApplication&lt;/b&gt;&lt;/p&gt;&lt;hr size=&quot;1&quot;/&gt;" style="verticalAlign=top;align=left;overflow=fill;fontSize=14;fontFamily=Helvetica;html=1;rounded=1;shadow=0;comic=0;labelBackgroundColor=none;strokeWidth=1;fillColor=#21C0A5;strokeColor=#006658;fontColor=#5C5C5C;" parent="1" vertex="1">
          <mxGeometry x="583" y="819" width="184" height="27" as="geometry" />
        </mxCell>
        <mxCell id="node16" value="&lt;p style=&quot;margin:0px;margin-top:4px;text-align:center;&quot;&gt;&lt;b&gt;CertificateController&lt;/b&gt;&lt;/p&gt;&lt;hr size=&quot;1&quot;/&gt;" style="verticalAlign=top;align=left;overflow=fill;fontSize=14;fontFamily=Helvetica;html=1;rounded=1;shadow=0;comic=0;labelBackgroundColor=none;strokeWidth=1;fillColor=#21C0A5;strokeColor=#006658;fontColor=#5C5C5C;" parent="1" vertex="1">
          <mxGeometry x="551" y="2899" width="168" height="27" as="geometry" />
        </mxCell>
        <mxCell id="node132" value="&lt;p style=&quot;margin:0px;margin-top:4px;text-align:center;&quot;&gt;&lt;b&gt;CertificatePaginationResponse&lt;/b&gt;&lt;/p&gt;&lt;hr size=&quot;1&quot;/&gt;" style="verticalAlign=top;align=left;overflow=fill;fontSize=14;fontFamily=Helvetica;html=1;rounded=1;shadow=0;comic=0;labelBackgroundColor=none;strokeWidth=1;fillColor=#21C0A5;strokeColor=#006658;fontColor=#5C5C5C;" parent="1" vertex="1">
          <mxGeometry x="-145" y="3199" width="241" height="27" as="geometry" />
        </mxCell>
        <mxCell id="node27" value="&lt;p style=&quot;margin:0px;margin-top:4px;text-align:center;&quot;&gt;&lt;i&gt;&amp;lt;&amp;lt;interface&amp;gt;&amp;gt;&lt;/i&gt;&lt;br/&gt;&lt;b&gt;CertificateRepository&lt;/b&gt;&lt;/p&gt;&lt;hr size=&quot;1&quot;/&gt;" style="verticalAlign=top;align=left;overflow=fill;fontSize=14;fontFamily=Helvetica;html=1;rounded=1;shadow=0;comic=0;labelBackgroundColor=none;strokeWidth=1;fillColor=#21C0A5;strokeColor=#006658;fontColor=#5C5C5C;" parent="1" vertex="1">
          <mxGeometry x="585" y="739" width="181" height="31" as="geometry" />
        </mxCell>
        <mxCell id="node154" value="&lt;p style=&quot;margin:0px;margin-top:4px;text-align:center;&quot;&gt;&lt;b&gt;CertificateRequest&lt;/b&gt;&lt;/p&gt;&lt;hr size=&quot;1&quot;/&gt;" style="verticalAlign=top;align=left;overflow=fill;fontSize=14;fontFamily=Helvetica;html=1;rounded=1;shadow=0;comic=0;labelBackgroundColor=none;strokeWidth=1;fillColor=#21C0A5;strokeColor=#006658;fontColor=#5C5C5C;" parent="1" vertex="1">
          <mxGeometry x="-147" y="459" width="164" height="27" as="geometry" />
        </mxCell>
        <mxCell id="node142" value="&lt;p style=&quot;margin:0px;margin-top:4px;text-align:center;&quot;&gt;&lt;b&gt;CertificateResponse&lt;/b&gt;&lt;/p&gt;&lt;hr size=&quot;1&quot;/&gt;" style="verticalAlign=top;align=left;overflow=fill;fontSize=14;fontFamily=Helvetica;html=1;rounded=1;shadow=0;comic=0;labelBackgroundColor=none;strokeWidth=1;fillColor=#21C0A5;strokeColor=#006658;fontColor=#5C5C5C;" parent="1" vertex="1">
          <mxGeometry x="88" y="2579" width="175" height="27" as="geometry" />
        </mxCell>
        <mxCell id="node146" value="&lt;p style=&quot;margin:0px;margin-top:4px;text-align:center;&quot;&gt;&lt;b&gt;CertificateSalaryResponse&lt;/b&gt;&lt;/p&gt;&lt;hr size=&quot;1&quot;/&gt;" style="verticalAlign=top;align=left;overflow=fill;fontSize=14;fontFamily=Helvetica;html=1;rounded=1;shadow=0;comic=0;labelBackgroundColor=none;strokeWidth=1;fillColor=#21C0A5;strokeColor=#006658;fontColor=#5C5C5C;" parent="1" vertex="1">
          <mxGeometry x="9" y="1579" width="213" height="27" as="geometry" />
        </mxCell>
        <mxCell id="node59" value="&lt;p style=&quot;margin:0px;margin-top:4px;text-align:center;&quot;&gt;&lt;i&gt;&amp;lt;&amp;lt;interface&amp;gt;&amp;gt;&lt;/i&gt;&lt;br/&gt;&lt;b&gt;CertificateSalaryService&lt;/b&gt;&lt;/p&gt;&lt;hr size=&quot;1&quot;/&gt;" style="verticalAlign=top;align=left;overflow=fill;fontSize=14;fontFamily=Helvetica;html=1;rounded=1;shadow=0;comic=0;labelBackgroundColor=none;strokeWidth=1;fillColor=#21C0A5;strokeColor=#006658;fontColor=#5C5C5C;" parent="1" vertex="1">
          <mxGeometry x="437" y="2359" width="197" height="31" as="geometry" />
        </mxCell>
        <mxCell id="node77" value="&lt;p style=&quot;margin:0px;margin-top:4px;text-align:center;&quot;&gt;&lt;b&gt;CertificateSalaryServiceImpl&lt;/b&gt;&lt;/p&gt;&lt;hr size=&quot;1&quot;/&gt;" style="verticalAlign=top;align=left;overflow=fill;fontSize=14;fontFamily=Helvetica;html=1;rounded=1;shadow=0;comic=0;labelBackgroundColor=none;strokeWidth=1;fillColor=#21C0A5;strokeColor=#006658;fontColor=#5C5C5C;" parent="1" vertex="1">
          <mxGeometry x="564" y="2579" width="222" height="27" as="geometry" />
        </mxCell>
        <mxCell id="node72" value="&lt;p style=&quot;margin:0px;margin-top:4px;text-align:center;&quot;&gt;&lt;i&gt;&amp;lt;&amp;lt;interface&amp;gt;&amp;gt;&lt;/i&gt;&lt;br/&gt;&lt;b&gt;CertificateService&lt;/b&gt;&lt;/p&gt;&lt;hr size=&quot;1&quot;/&gt;" style="verticalAlign=top;align=left;overflow=fill;fontSize=14;fontFamily=Helvetica;html=1;rounded=1;shadow=0;comic=0;labelBackgroundColor=none;strokeWidth=1;fillColor=#21C0A5;strokeColor=#006658;fontColor=#5C5C5C;" parent="1" vertex="1">
          <mxGeometry x="296" y="1339" width="159" height="31" as="geometry" />
        </mxCell>
        <mxCell id="node113" value="&lt;p style=&quot;margin:0px;margin-top:4px;text-align:center;&quot;&gt;&lt;b&gt;CertificateServiceImpl&lt;/b&gt;&lt;/p&gt;&lt;hr size=&quot;1&quot;/&gt;" style="verticalAlign=top;align=left;overflow=fill;fontSize=14;fontFamily=Helvetica;html=1;rounded=1;shadow=0;comic=0;labelBackgroundColor=none;strokeWidth=1;fillColor=#21C0A5;strokeColor=#006658;fontColor=#5C5C5C;" parent="1" vertex="1">
          <mxGeometry x="63" y="1439" width="185" height="27" as="geometry" />
        </mxCell>
        <mxCell id="node36" value="&lt;p style=&quot;margin:0px;margin-top:4px;text-align:center;&quot;&gt;&lt;i&gt;&amp;lt;&amp;lt;enumeration&amp;gt;&amp;gt;&lt;/i&gt;&lt;br/&gt;&lt;b&gt;ChangeStatus&lt;/b&gt;&lt;/p&gt;&lt;hr size=&quot;1&quot;/&gt;" style="verticalAlign=top;align=left;overflow=fill;fontSize=14;fontFamily=Helvetica;html=1;rounded=1;shadow=0;comic=0;labelBackgroundColor=none;strokeWidth=1;fillColor=#21C0A5;strokeColor=#006658;fontColor=#5C5C5C;" parent="1" vertex="1">
          <mxGeometry x="466" y="179" width="138" height="31" as="geometry" />
        </mxCell>
        <mxCell id="node0" value="&lt;p style=&quot;margin:0px;margin-top:4px;text-align:center;&quot;&gt;&lt;i&gt;&amp;lt;&amp;lt;enumeration&amp;gt;&amp;gt;&lt;/i&gt;&lt;br/&gt;&lt;b&gt;Cities&lt;/b&gt;&lt;/p&gt;&lt;hr size=&quot;1&quot;/&gt;" style="verticalAlign=top;align=left;overflow=fill;fontSize=14;fontFamily=Helvetica;html=1;rounded=1;shadow=0;comic=0;labelBackgroundColor=none;strokeWidth=1;fillColor=#21C0A5;strokeColor=#006658;fontColor=#5C5C5C;" parent="1" vertex="1">
          <mxGeometry x="592" y="259" width="86" height="31" as="geometry" />
        </mxCell>
        <mxCell id="node41" value="&lt;p style=&quot;margin:0px;margin-top:4px;text-align:center;&quot;&gt;&lt;b&gt;Company&lt;/b&gt;&lt;/p&gt;&lt;hr size=&quot;1&quot;/&gt;" style="verticalAlign=top;align=left;overflow=fill;fontSize=14;fontFamily=Helvetica;html=1;rounded=1;shadow=0;comic=0;labelBackgroundColor=none;strokeWidth=1;fillColor=#21C0A5;strokeColor=#006658;fontColor=#5C5C5C;" parent="1" vertex="1">
          <mxGeometry x="480" y="979" width="110" height="27" as="geometry" />
        </mxCell>
        <mxCell id="node159" value="&lt;p style=&quot;margin:0px;margin-top:4px;text-align:center;&quot;&gt;&lt;b&gt;CompanyController&lt;/b&gt;&lt;/p&gt;&lt;hr size=&quot;1&quot;/&gt;" style="verticalAlign=top;align=left;overflow=fill;fontSize=14;fontFamily=Helvetica;html=1;rounded=1;shadow=0;comic=0;labelBackgroundColor=none;strokeWidth=1;fillColor=#21C0A5;strokeColor=#006658;fontColor=#5C5C5C;" parent="1" vertex="1">
          <mxGeometry x="-10" y="539" width="171" height="27" as="geometry" />
        </mxCell>
        <mxCell id="node111" value="&lt;p style=&quot;margin:0px;margin-top:4px;text-align:center;&quot;&gt;&lt;b&gt;CompanyNotFoundException&lt;/b&gt;&lt;/p&gt;&lt;hr size=&quot;1&quot;/&gt;" style="verticalAlign=top;align=left;overflow=fill;fontSize=14;fontFamily=Helvetica;html=1;rounded=1;shadow=0;comic=0;labelBackgroundColor=none;strokeWidth=1;fillColor=#21C0A5;strokeColor=#006658;fontColor=#5C5C5C;" parent="1" vertex="1">
          <mxGeometry x="79" y="2259" width="233" height="27" as="geometry" />
        </mxCell>
        <mxCell id="node87" value="&lt;p style=&quot;margin:0px;margin-top:4px;text-align:center;&quot;&gt;&lt;b&gt;CompanyPaginationResponse&lt;/b&gt;&lt;/p&gt;&lt;hr size=&quot;1&quot;/&gt;" style="verticalAlign=top;align=left;overflow=fill;fontSize=14;fontFamily=Helvetica;html=1;rounded=1;shadow=0;comic=0;labelBackgroundColor=none;strokeWidth=1;fillColor=#21C0A5;strokeColor=#006658;fontColor=#5C5C5C;" parent="1" vertex="1">
          <mxGeometry x="297" y="3459" width="236" height="27" as="geometry" />
        </mxCell>
        <mxCell id="node152" value="&lt;p style=&quot;margin:0px;margin-top:4px;text-align:center;&quot;&gt;&lt;i&gt;&amp;lt;&amp;lt;interface&amp;gt;&amp;gt;&lt;/i&gt;&lt;br/&gt;&lt;b&gt;CompanyRepository&lt;/b&gt;&lt;/p&gt;&lt;hr size=&quot;1&quot;/&gt;" style="verticalAlign=top;align=left;overflow=fill;fontSize=14;fontFamily=Helvetica;html=1;rounded=1;shadow=0;comic=0;labelBackgroundColor=none;strokeWidth=1;fillColor=#21C0A5;strokeColor=#006658;fontColor=#5C5C5C;" parent="1" vertex="1">
          <mxGeometry x="-133" y="1179" width="176" height="31" as="geometry" />
        </mxCell>
        <mxCell id="node32" value="&lt;p style=&quot;margin:0px;margin-top:4px;text-align:center;&quot;&gt;&lt;b&gt;CompanyRequest&lt;/b&gt;&lt;/p&gt;&lt;hr size=&quot;1&quot;/&gt;" style="verticalAlign=top;align=left;overflow=fill;fontSize=14;fontFamily=Helvetica;html=1;rounded=1;shadow=0;comic=0;labelBackgroundColor=none;strokeWidth=1;fillColor=#21C0A5;strokeColor=#006658;fontColor=#5C5C5C;" parent="1" vertex="1">
          <mxGeometry x="476" y="679" width="159" height="27" as="geometry" />
        </mxCell>
        <mxCell id="node112" value="&lt;p style=&quot;margin:0px;margin-top:4px;text-align:center;&quot;&gt;&lt;b&gt;CompanyResponse&lt;/b&gt;&lt;/p&gt;&lt;hr size=&quot;1&quot;/&gt;" style="verticalAlign=top;align=left;overflow=fill;fontSize=14;fontFamily=Helvetica;html=1;rounded=1;shadow=0;comic=0;labelBackgroundColor=none;strokeWidth=1;fillColor=#21C0A5;strokeColor=#006658;fontColor=#5C5C5C;" parent="1" vertex="1">
          <mxGeometry x="-110" y="3039" width="170" height="27" as="geometry" />
        </mxCell>
        <mxCell id="node107" value="&lt;p style=&quot;margin:0px;margin-top:4px;text-align:center;&quot;&gt;&lt;i&gt;&amp;lt;&amp;lt;interface&amp;gt;&amp;gt;&lt;/i&gt;&lt;br/&gt;&lt;b&gt;CompanyService&lt;/b&gt;&lt;/p&gt;&lt;hr size=&quot;1&quot;/&gt;" style="verticalAlign=top;align=left;overflow=fill;fontSize=14;fontFamily=Helvetica;html=1;rounded=1;shadow=0;comic=0;labelBackgroundColor=none;strokeWidth=1;fillColor=#21C0A5;strokeColor=#006658;fontColor=#5C5C5C;" parent="1" vertex="1">
          <mxGeometry x="218" y="2519" width="154" height="31" as="geometry" />
        </mxCell>
        <mxCell id="node140" value="&lt;p style=&quot;margin:0px;margin-top:4px;text-align:center;&quot;&gt;&lt;b&gt;CompanyServiceImpl&lt;/b&gt;&lt;/p&gt;&lt;hr size=&quot;1&quot;/&gt;" style="verticalAlign=top;align=left;overflow=fill;fontSize=14;fontFamily=Helvetica;html=1;rounded=1;shadow=0;comic=0;labelBackgroundColor=none;strokeWidth=1;fillColor=#21C0A5;strokeColor=#006658;fontColor=#5C5C5C;" parent="1" vertex="1">
          <mxGeometry x="265" y="2679" width="180" height="27" as="geometry" />
        </mxCell>
        <mxCell id="node70" value="&lt;p style=&quot;margin:0px;margin-top:4px;text-align:center;&quot;&gt;&lt;b&gt;Configurations&lt;/b&gt;&lt;/p&gt;&lt;hr size=&quot;1&quot;/&gt;" style="verticalAlign=top;align=left;overflow=fill;fontSize=14;fontFamily=Helvetica;html=1;rounded=1;shadow=0;comic=0;labelBackgroundColor=none;strokeWidth=1;fillColor=#21C0A5;strokeColor=#006658;fontColor=#5C5C5C;" parent="1" vertex="1">
          <mxGeometry x="148" y="3039" width="134" height="27" as="geometry" />
        </mxCell>
        <mxCell id="node54" value="&lt;p style=&quot;margin:0px;margin-top:4px;text-align:center;&quot;&gt;&lt;b&gt;ConstantValue&lt;/b&gt;&lt;/p&gt;&lt;hr size=&quot;1&quot;/&gt;" style="verticalAlign=top;align=left;overflow=fill;fontSize=14;fontFamily=Helvetica;html=1;rounded=1;shadow=0;comic=0;labelBackgroundColor=none;strokeWidth=1;fillColor=#21C0A5;strokeColor=#006658;fontColor=#5C5C5C;" parent="1" vertex="1">
          <mxGeometry x="404" y="3299" width="142" height="27" as="geometry" />
        </mxCell>
        <mxCell id="node119" value="&lt;p style=&quot;margin:0px;margin-top:4px;text-align:center;&quot;&gt;&lt;b&gt;CorsConfig&lt;/b&gt;&lt;/p&gt;&lt;hr size=&quot;1&quot;/&gt;" style="verticalAlign=top;align=left;overflow=fill;fontSize=14;fontFamily=Helvetica;html=1;rounded=1;shadow=0;comic=0;labelBackgroundColor=none;strokeWidth=1;fillColor=#21C0A5;strokeColor=#006658;fontColor=#5C5C5C;" parent="1" vertex="1">
          <mxGeometry x="14" y="39" width="122" height="27" as="geometry" />
        </mxCell>
        <mxCell id="node50" value="&lt;p style=&quot;margin:0px;margin-top:4px;text-align:center;&quot;&gt;&lt;i&gt;&amp;lt;&amp;lt;enumeration&amp;gt;&amp;gt;&lt;/i&gt;&lt;br/&gt;&lt;b&gt;Countries&lt;/b&gt;&lt;/p&gt;&lt;hr size=&quot;1&quot;/&gt;" style="verticalAlign=top;align=left;overflow=fill;fontSize=14;fontFamily=Helvetica;html=1;rounded=1;shadow=0;comic=0;labelBackgroundColor=none;strokeWidth=1;fillColor=#21C0A5;strokeColor=#006658;fontColor=#5C5C5C;" parent="1" vertex="1">
          <mxGeometry x="260" y="679" width="110" height="31" as="geometry" />
        </mxCell>
        <mxCell id="node98" value="&lt;p style=&quot;margin:0px;margin-top:4px;text-align:center;&quot;&gt;&lt;b&gt;CustomLongDeserializer&lt;/b&gt;&lt;/p&gt;&lt;hr size=&quot;1&quot;/&gt;" style="verticalAlign=top;align=left;overflow=fill;fontSize=14;fontFamily=Helvetica;html=1;rounded=1;shadow=0;comic=0;labelBackgroundColor=none;strokeWidth=1;fillColor=#21C0A5;strokeColor=#006658;fontColor=#5C5C5C;" parent="1" vertex="1">
          <mxGeometry x="414" y="1499" width="202" height="27" as="geometry" />
        </mxCell>
        <mxCell id="node38" value="&lt;p style=&quot;margin:0px;margin-top:4px;text-align:center;&quot;&gt;&lt;b&gt;CustomLongSerializer&lt;/b&gt;&lt;/p&gt;&lt;hr size=&quot;1&quot;/&gt;" style="verticalAlign=top;align=left;overflow=fill;fontSize=14;fontFamily=Helvetica;html=1;rounded=1;shadow=0;comic=0;labelBackgroundColor=none;strokeWidth=1;fillColor=#21C0A5;strokeColor=#006658;fontColor=#5C5C5C;" parent="1" vertex="1">
          <mxGeometry x="222" y="3719" width="186" height="27" as="geometry" />
        </mxCell>
        <mxCell id="node136" value="&lt;p style=&quot;margin:0px;margin-top:4px;text-align:center;&quot;&gt;&lt;b&gt;DateUtils&lt;/b&gt;&lt;/p&gt;&lt;hr size=&quot;1&quot;/&gt;" style="verticalAlign=top;align=left;overflow=fill;fontSize=14;fontFamily=Helvetica;html=1;rounded=1;shadow=0;comic=0;labelBackgroundColor=none;strokeWidth=1;fillColor=#21C0A5;strokeColor=#006658;fontColor=#5C5C5C;" parent="1" vertex="1">
          <mxGeometry x="62" y="2039" width="107" height="27" as="geometry" />
        </mxCell>
        <mxCell id="node64" value="&lt;p style=&quot;margin:0px;margin-top:4px;text-align:center;&quot;&gt;&lt;b&gt;DefaultSalaryValues&lt;/b&gt;&lt;/p&gt;&lt;hr size=&quot;1&quot;/&gt;" style="verticalAlign=top;align=left;overflow=fill;fontSize=14;fontFamily=Helvetica;html=1;rounded=1;shadow=0;comic=0;labelBackgroundColor=none;strokeWidth=1;fillColor=#21C0A5;strokeColor=#006658;fontColor=#5C5C5C;" parent="1" vertex="1">
          <mxGeometry x="329" y="599" width="173" height="27" as="geometry" />
        </mxCell>
        <mxCell id="node40" value="&lt;p style=&quot;margin:0px;margin-top:4px;text-align:center;&quot;&gt;&lt;b&gt;DefaultSalaryValuesController&lt;/b&gt;&lt;/p&gt;&lt;hr size=&quot;1&quot;/&gt;" style="verticalAlign=top;align=left;overflow=fill;fontSize=14;fontFamily=Helvetica;html=1;rounded=1;shadow=0;comic=0;labelBackgroundColor=none;strokeWidth=1;fillColor=#21C0A5;strokeColor=#006658;fontColor=#5C5C5C;" parent="1" vertex="1">
          <mxGeometry x="558" y="2419" width="234" height="27" as="geometry" />
        </mxCell>
        <mxCell id="node48" value="&lt;p style=&quot;margin:0px;margin-top:4px;text-align:center;&quot;&gt;&lt;i&gt;&amp;lt;&amp;lt;interface&amp;gt;&amp;gt;&lt;/i&gt;&lt;br/&gt;&lt;b&gt;DefaultSalaryValuesRepository&lt;/b&gt;&lt;/p&gt;&lt;hr size=&quot;1&quot;/&gt;" style="verticalAlign=top;align=left;overflow=fill;fontSize=14;fontFamily=Helvetica;html=1;rounded=1;shadow=0;comic=0;labelBackgroundColor=none;strokeWidth=1;fillColor=#21C0A5;strokeColor=#006658;fontColor=#5C5C5C;" parent="1" vertex="1">
          <mxGeometry x="376" y="3039" width="239" height="31" as="geometry" />
        </mxCell>
        <mxCell id="node153" value="&lt;p style=&quot;margin:0px;margin-top:4px;text-align:center;&quot;&gt;&lt;b&gt;DefaultSalaryValuesRequest&lt;/b&gt;&lt;/p&gt;&lt;hr size=&quot;1&quot;/&gt;" style="verticalAlign=top;align=left;overflow=fill;fontSize=14;fontFamily=Helvetica;html=1;rounded=1;shadow=0;comic=0;labelBackgroundColor=none;strokeWidth=1;fillColor=#21C0A5;strokeColor=#006658;fontColor=#5C5C5C;" parent="1" vertex="1">
          <mxGeometry x="-136" y="2099" width="222" height="27" as="geometry" />
        </mxCell>
        <mxCell id="node124" value="&lt;p style=&quot;margin:0px;margin-top:4px;text-align:center;&quot;&gt;&lt;b&gt;DefaultSalaryValuesRequestServiceImpl&lt;/b&gt;&lt;/p&gt;&lt;hr size=&quot;1&quot;/&gt;" style="verticalAlign=top;align=left;overflow=fill;fontSize=14;fontFamily=Helvetica;html=1;rounded=1;shadow=0;comic=0;labelBackgroundColor=none;strokeWidth=1;fillColor=#21C0A5;strokeColor=#006658;fontColor=#5C5C5C;" parent="1" vertex="1">
          <mxGeometry x="-131" y="3719" width="293" height="27" as="geometry" />
        </mxCell>
        <mxCell id="node161" value="&lt;p style=&quot;margin:0px;margin-top:4px;text-align:center;&quot;&gt;&lt;b&gt;DefaultSalaryValuesResponse&lt;/b&gt;&lt;/p&gt;&lt;hr size=&quot;1&quot;/&gt;" style="verticalAlign=top;align=left;overflow=fill;fontSize=14;fontFamily=Helvetica;html=1;rounded=1;shadow=0;comic=0;labelBackgroundColor=none;strokeWidth=1;fillColor=#21C0A5;strokeColor=#006658;fontColor=#5C5C5C;" parent="1" vertex="1">
          <mxGeometry x="-82" y="2519" width="234" height="27" as="geometry" />
        </mxCell>
        <mxCell id="node117" value="&lt;p style=&quot;margin:0px;margin-top:4px;text-align:center;&quot;&gt;&lt;i&gt;&amp;lt;&amp;lt;interface&amp;gt;&amp;gt;&lt;/i&gt;&lt;br/&gt;&lt;b&gt;DefaultSalaryValuesService&lt;/b&gt;&lt;/p&gt;&lt;hr size=&quot;1&quot;/&gt;" style="verticalAlign=top;align=left;overflow=fill;fontSize=14;fontFamily=Helvetica;html=1;rounded=1;shadow=0;comic=0;labelBackgroundColor=none;strokeWidth=1;fillColor=#21C0A5;strokeColor=#006658;fontColor=#5C5C5C;" parent="1" vertex="1">
          <mxGeometry x="-94" y="3519" width="218" height="31" as="geometry" />
        </mxCell>
        <mxCell id="node23" value="&lt;p style=&quot;margin:0px;margin-top:4px;text-align:center;&quot;&gt;&lt;b&gt;DocumentFile&lt;/b&gt;&lt;/p&gt;&lt;hr size=&quot;1&quot;/&gt;" style="verticalAlign=top;align=left;overflow=fill;fontSize=14;fontFamily=Helvetica;html=1;rounded=1;shadow=0;comic=0;labelBackgroundColor=none;strokeWidth=1;fillColor=#21C0A5;strokeColor=#006658;fontColor=#5C5C5C;" parent="1" vertex="1">
          <mxGeometry x="448" y="3199" width="135" height="27" as="geometry" />
        </mxCell>
        <mxCell id="node135" value="&lt;p style=&quot;margin:0px;margin-top:4px;text-align:center;&quot;&gt;&lt;b&gt;DocumentNotFoundException&lt;/b&gt;&lt;/p&gt;&lt;hr size=&quot;1&quot;/&gt;" style="verticalAlign=top;align=left;overflow=fill;fontSize=14;fontFamily=Helvetica;html=1;rounded=1;shadow=0;comic=0;labelBackgroundColor=none;strokeWidth=1;fillColor=#21C0A5;strokeColor=#006658;fontColor=#5C5C5C;" parent="1" vertex="1">
          <mxGeometry x="-143" y="2739" width="237" height="27" as="geometry" />
        </mxCell>
        <mxCell id="node42" value="&lt;p style=&quot;margin:0px;margin-top:4px;text-align:center;&quot;&gt;&lt;i&gt;&amp;lt;&amp;lt;interface&amp;gt;&amp;gt;&lt;/i&gt;&lt;br/&gt;&lt;b&gt;DocumentService&lt;/b&gt;&lt;/p&gt;&lt;hr size=&quot;1&quot;/&gt;" style="verticalAlign=top;align=left;overflow=fill;fontSize=14;fontFamily=Helvetica;html=1;rounded=1;shadow=0;comic=0;labelBackgroundColor=none;strokeWidth=1;fillColor=#21C0A5;strokeColor=#006658;fontColor=#5C5C5C;" parent="1" vertex="1">
          <mxGeometry x="676" y="1279" width="158" height="31" as="geometry" />
        </mxCell>
        <mxCell id="node168" value="&lt;p style=&quot;margin:0px;margin-top:4px;text-align:center;&quot;&gt;&lt;b&gt;DocumentServiceImpl&lt;/b&gt;&lt;/p&gt;&lt;hr size=&quot;1&quot;/&gt;" style="verticalAlign=top;align=left;overflow=fill;fontSize=14;fontFamily=Helvetica;html=1;rounded=1;shadow=0;comic=0;labelBackgroundColor=none;strokeWidth=1;fillColor=#21C0A5;strokeColor=#006658;fontColor=#5C5C5C;" parent="1" vertex="1">
          <mxGeometry x="663" y="1499" width="184" height="27" as="geometry" />
        </mxCell>
        <mxCell id="node28" value="&lt;p style=&quot;margin:0px;margin-top:4px;text-align:center;&quot;&gt;&lt;b&gt;Documents&lt;/b&gt;&lt;/p&gt;&lt;hr size=&quot;1&quot;/&gt;" style="verticalAlign=top;align=left;overflow=fill;fontSize=14;fontFamily=Helvetica;html=1;rounded=1;shadow=0;comic=0;labelBackgroundColor=none;strokeWidth=1;fillColor=#21C0A5;strokeColor=#006658;fontColor=#5C5C5C;" parent="1" vertex="1">
          <mxGeometry x="335" y="39" width="121" height="27" as="geometry" />
        </mxCell>
        <mxCell id="node167" value="&lt;p style=&quot;margin:0px;margin-top:4px;text-align:center;&quot;&gt;&lt;i&gt;&amp;lt;&amp;lt;interface&amp;gt;&amp;gt;&lt;/i&gt;&lt;br/&gt;&lt;b&gt;DocumentsLinkRepository&lt;/b&gt;&lt;/p&gt;&lt;hr size=&quot;1&quot;/&gt;" style="verticalAlign=top;align=left;overflow=fill;fontSize=14;fontFamily=Helvetica;html=1;rounded=1;shadow=0;comic=0;labelBackgroundColor=none;strokeWidth=1;fillColor=#21C0A5;strokeColor=#006658;fontColor=#5C5C5C;" parent="1" vertex="1">
          <mxGeometry x="-131" y="1639" width="213" height="31" as="geometry" />
        </mxCell>
        <mxCell id="node5" value="&lt;p style=&quot;margin:0px;margin-top:4px;text-align:center;&quot;&gt;&lt;b&gt;DocumentsResponse&lt;/b&gt;&lt;/p&gt;&lt;hr size=&quot;1&quot;/&gt;" style="verticalAlign=top;align=left;overflow=fill;fontSize=14;fontFamily=Helvetica;html=1;rounded=1;shadow=0;comic=0;labelBackgroundColor=none;strokeWidth=1;fillColor=#21C0A5;strokeColor=#006658;fontColor=#5C5C5C;" parent="1" vertex="1">
          <mxGeometry x="714" y="3650" width="203" height="46" as="geometry" />
        </mxCell>
        <mxCell id="node115" value="&lt;p style=&quot;margin:0px;margin-top:4px;text-align:center;&quot;&gt;&lt;b&gt;DroolsConfig&lt;/b&gt;&lt;/p&gt;&lt;hr size=&quot;1&quot;/&gt;" style="verticalAlign=top;align=left;overflow=fill;fontSize=14;fontFamily=Helvetica;html=1;rounded=1;shadow=0;comic=0;labelBackgroundColor=none;strokeWidth=1;fillColor=#21C0A5;strokeColor=#006658;fontColor=#5C5C5C;" parent="1" vertex="1">
          <mxGeometry x="429" y="1639" width="133" height="27" as="geometry" />
        </mxCell>
        <mxCell id="node137" value="&lt;p style=&quot;margin:0px;margin-top:4px;text-align:center;&quot;&gt;&lt;b&gt;DuplicateDataFound&lt;/b&gt;&lt;/p&gt;&lt;hr size=&quot;1&quot;/&gt;" style="verticalAlign=top;align=left;overflow=fill;fontSize=14;fontFamily=Helvetica;html=1;rounded=1;shadow=0;comic=0;labelBackgroundColor=none;strokeWidth=1;fillColor=#21C0A5;strokeColor=#006658;fontColor=#5C5C5C;" parent="1" vertex="1">
          <mxGeometry x="307" y="1439" width="176" height="27" as="geometry" />
        </mxCell>
        <mxCell id="node22" value="&lt;p style=&quot;margin:0px;margin-top:4px;text-align:center;&quot;&gt;&lt;b&gt;EmailAlreadyExistException&lt;/b&gt;&lt;/p&gt;&lt;hr size=&quot;1&quot;/&gt;" style="verticalAlign=top;align=left;overflow=fill;fontSize=14;fontFamily=Helvetica;html=1;rounded=1;shadow=0;comic=0;labelBackgroundColor=none;strokeWidth=1;fillColor=#21C0A5;strokeColor=#006658;fontColor=#5C5C5C;" parent="1" vertex="1">
          <mxGeometry x="688" y="1779" width="214" height="27" as="geometry" />
        </mxCell>
        <mxCell id="node147" value="&lt;p style=&quot;margin:0px;margin-top:4px;text-align:center;&quot;&gt;&lt;b&gt;EmailDetails&lt;/b&gt;&lt;/p&gt;&lt;hr size=&quot;1&quot;/&gt;" style="verticalAlign=top;align=left;overflow=fill;fontSize=14;fontFamily=Helvetica;html=1;rounded=1;shadow=0;comic=0;labelBackgroundColor=none;strokeWidth=1;fillColor=#21C0A5;strokeColor=#006658;fontColor=#5C5C5C;" parent="1" vertex="1">
          <mxGeometry x="-68" y="-21" width="126" height="27" as="geometry" />
        </mxCell>
        <mxCell id="node61" value="&lt;p style=&quot;margin:0px;margin-top:4px;text-align:center;&quot;&gt;&lt;b&gt;EmailValidator&lt;/b&gt;&lt;/p&gt;&lt;hr size=&quot;1&quot;/&gt;" style="verticalAlign=top;align=left;overflow=fill;fontSize=14;fontFamily=Helvetica;html=1;rounded=1;shadow=0;comic=0;labelBackgroundColor=none;strokeWidth=1;fillColor=#21C0A5;strokeColor=#006658;fontColor=#5C5C5C;" parent="1" vertex="1">
          <mxGeometry x="366" y="119" width="138" height="27" as="geometry" />
        </mxCell>
        <mxCell id="node110" value="&lt;p style=&quot;margin:0px;margin-top:4px;text-align:center;&quot;&gt;&lt;b&gt;EntityPrintService&lt;T&gt;&lt;/b&gt;&lt;/p&gt;&lt;hr size=&quot;1&quot;/&gt;" style="verticalAlign=top;align=left;overflow=fill;fontSize=14;fontFamily=Helvetica;html=1;rounded=1;shadow=0;comic=0;labelBackgroundColor=none;strokeWidth=1;fillColor=#21C0A5;strokeColor=#006658;fontColor=#5C5C5C;" parent="1" vertex="1">
          <mxGeometry x="302" y="2039" width="187" height="27" as="geometry" />
        </mxCell>
        <mxCell id="node81" value="&lt;p style=&quot;margin:0px;margin-top:4px;text-align:center;&quot;&gt;&lt;b&gt;ErrorResponse&lt;/b&gt;&lt;/p&gt;&lt;hr size=&quot;1&quot;/&gt;" style="verticalAlign=top;align=left;overflow=fill;fontSize=14;fontFamily=Helvetica;html=1;rounded=1;shadow=0;comic=0;labelBackgroundColor=none;strokeWidth=1;fillColor=#21C0A5;strokeColor=#006658;fontColor=#5C5C5C;" parent="1" vertex="1">
          <mxGeometry x="464" y="2519" width="142" height="27" as="geometry" />
        </mxCell>
        <mxCell id="node75" value="&lt;p style=&quot;margin:0px;margin-top:4px;text-align:center;&quot;&gt;&lt;b&gt;ExcelGenerateController&lt;/b&gt;&lt;/p&gt;&lt;hr size=&quot;1&quot;/&gt;" style="verticalAlign=top;align=left;overflow=fill;fontSize=14;fontFamily=Helvetica;html=1;rounded=1;shadow=0;comic=0;labelBackgroundColor=none;strokeWidth=1;fillColor=#21C0A5;strokeColor=#006658;fontColor=#5C5C5C;" parent="1" vertex="1">
          <mxGeometry x="215" y="1779" width="201" height="27" as="geometry" />
        </mxCell>
        <mxCell id="node151" value="&lt;p style=&quot;margin:0px;margin-top:4px;text-align:center;&quot;&gt;&lt;b&gt;ExcelGeneratorService&lt;/b&gt;&lt;/p&gt;&lt;hr size=&quot;1&quot;/&gt;" style="verticalAlign=top;align=left;overflow=fill;fontSize=14;fontFamily=Helvetica;html=1;rounded=1;shadow=0;comic=0;labelBackgroundColor=none;strokeWidth=1;fillColor=#21C0A5;strokeColor=#006658;fontColor=#5C5C5C;" parent="1" vertex="1">
          <mxGeometry x="-20" y="3359" width="190" height="27" as="geometry" />
        </mxCell>
        <mxCell id="node46" value="&lt;p style=&quot;margin:0px;margin-top:4px;text-align:center;&quot;&gt;&lt;b&gt;ExcelGeneratorServiceImpl&lt;/b&gt;&lt;/p&gt;&lt;hr size=&quot;1&quot;/&gt;" style="verticalAlign=top;align=left;overflow=fill;fontSize=14;fontFamily=Helvetica;html=1;rounded=1;shadow=0;comic=0;labelBackgroundColor=none;strokeWidth=1;fillColor=#21C0A5;strokeColor=#006658;fontColor=#5C5C5C;" parent="1" vertex="1">
          <mxGeometry x="528" y="2259" width="215" height="27" as="geometry" />
        </mxCell>
        <mxCell id="node26" value="&lt;p style=&quot;margin:0px;margin-top:4px;text-align:center;&quot;&gt;&lt;i&gt;&amp;lt;&amp;lt;interface&amp;gt;&amp;gt;&lt;/i&gt;&lt;br/&gt;&lt;b&gt;ExcelService&lt;/b&gt;&lt;/p&gt;&lt;hr size=&quot;1&quot;/&gt;" style="verticalAlign=top;align=left;overflow=fill;fontSize=14;fontFamily=Helvetica;html=1;rounded=1;shadow=0;comic=0;labelBackgroundColor=none;strokeWidth=1;fillColor=#21C0A5;strokeColor=#006658;fontColor=#5C5C5C;" parent="1" vertex="1">
          <mxGeometry x="571" y="2039" width="128" height="31" as="geometry" />
        </mxCell>
        <mxCell id="node30" value="&lt;p style=&quot;margin:0px;margin-top:4px;text-align:center;&quot;&gt;&lt;b&gt;FileRequest&lt;/b&gt;&lt;/p&gt;&lt;hr size=&quot;1&quot;/&gt;" style="verticalAlign=top;align=left;overflow=fill;fontSize=14;fontFamily=Helvetica;html=1;rounded=1;shadow=0;comic=0;labelBackgroundColor=none;strokeWidth=1;fillColor=#21C0A5;strokeColor=#006658;fontColor=#5C5C5C;" parent="1" vertex="1">
          <mxGeometry x="254" y="-21" width="122" height="27" as="geometry" />
        </mxCell>
        <mxCell id="node144" value="&lt;p style=&quot;margin:0px;margin-top:4px;text-align:center;&quot;&gt;&lt;b&gt;FileResponse&lt;/b&gt;&lt;/p&gt;&lt;hr size=&quot;1&quot;/&gt;" style="verticalAlign=top;align=left;overflow=fill;fontSize=14;fontFamily=Helvetica;html=1;rounded=1;shadow=0;comic=0;labelBackgroundColor=none;strokeWidth=1;fillColor=#21C0A5;strokeColor=#006658;fontColor=#5C5C5C;" parent="1" vertex="1">
          <mxGeometry x="-31" y="399" width="133" height="27" as="geometry" />
        </mxCell>
        <mxCell id="node43" value="&lt;p style=&quot;margin:0px;margin-top:4px;text-align:center;&quot;&gt;&lt;b&gt;FileStorageException&lt;/b&gt;&lt;/p&gt;&lt;hr size=&quot;1&quot;/&gt;" style="verticalAlign=top;align=left;overflow=fill;fontSize=14;fontFamily=Helvetica;html=1;rounded=1;shadow=0;comic=0;labelBackgroundColor=none;strokeWidth=1;fillColor=#21C0A5;strokeColor=#006658;fontColor=#5C5C5C;" parent="1" vertex="1">
          <mxGeometry x="344" y="739" width="182" height="27" as="geometry" />
        </mxCell>
        <mxCell id="node8" value="&lt;p style=&quot;margin:0px;margin-top:4px;text-align:center;&quot;&gt;&lt;b&gt;FileStorageService&lt;/b&gt;&lt;/p&gt;&lt;hr size=&quot;1&quot;/&gt;" style="verticalAlign=top;align=left;overflow=fill;fontSize=14;fontFamily=Helvetica;html=1;rounded=1;shadow=0;comic=0;labelBackgroundColor=none;strokeWidth=1;fillColor=#21C0A5;strokeColor=#006658;fontColor=#5C5C5C;" parent="1" vertex="1">
          <mxGeometry x="453" y="459" width="165" height="27" as="geometry" />
        </mxCell>
        <mxCell id="node47" value="&lt;p style=&quot;margin:0px;margin-top:4px;text-align:center;&quot;&gt;&lt;b&gt;FileValidator&lt;/b&gt;&lt;/p&gt;&lt;hr size=&quot;1&quot;/&gt;" style="verticalAlign=top;align=left;overflow=fill;fontSize=14;fontFamily=Helvetica;html=1;rounded=1;shadow=0;comic=0;labelBackgroundColor=none;strokeWidth=1;fillColor=#21C0A5;strokeColor=#006658;fontColor=#5C5C5C;" parent="1" vertex="1">
          <mxGeometry x="172" y="39" width="127" height="27" as="geometry" />
        </mxCell>
        <mxCell id="node109" value="&lt;p style=&quot;margin:0px;margin-top:4px;text-align:center;&quot;&gt;&lt;b&gt;Folder&lt;/b&gt;&lt;/p&gt;&lt;hr size=&quot;1&quot;/&gt;" style="verticalAlign=top;align=left;overflow=fill;fontSize=14;fontFamily=Helvetica;html=1;rounded=1;shadow=0;comic=0;labelBackgroundColor=none;strokeWidth=1;fillColor=#21C0A5;strokeColor=#006658;fontColor=#5C5C5C;" parent="1" vertex="1">
          <mxGeometry x="30" y="1939" width="90" height="27" as="geometry" />
        </mxCell>
        <mxCell id="node88" value="&lt;p style=&quot;margin:0px;margin-top:4px;text-align:center;&quot;&gt;&lt;b&gt;FolderRequest&lt;/b&gt;&lt;/p&gt;&lt;hr size=&quot;1&quot;/&gt;" style="verticalAlign=top;align=left;overflow=fill;fontSize=14;fontFamily=Helvetica;html=1;rounded=1;shadow=0;comic=0;labelBackgroundColor=none;strokeWidth=1;fillColor=#21C0A5;strokeColor=#006658;fontColor=#5C5C5C;" parent="1" vertex="1">
          <mxGeometry x="346" y="2419" width="139" height="27" as="geometry" />
        </mxCell>
        <mxCell id="node19" value="&lt;p style=&quot;margin:0px;margin-top:4px;text-align:center;&quot;&gt;&lt;b&gt;FolderResponse&lt;/b&gt;&lt;/p&gt;&lt;hr size=&quot;1&quot;/&gt;" style="verticalAlign=top;align=left;overflow=fill;fontSize=14;fontFamily=Helvetica;html=1;rounded=1;shadow=0;comic=0;labelBackgroundColor=none;strokeWidth=1;fillColor=#21C0A5;strokeColor=#006658;fontColor=#5C5C5C;" parent="1" vertex="1">
          <mxGeometry x="660" y="2099" width="150" height="27" as="geometry" />
        </mxCell>
        <mxCell id="node160" value="&lt;p style=&quot;margin:0px;margin-top:4px;text-align:center;&quot;&gt;&lt;b&gt;ForgetPasswordRequest&lt;/b&gt;&lt;/p&gt;&lt;hr size=&quot;1&quot;/&gt;" style="verticalAlign=top;align=left;overflow=fill;fontSize=14;fontFamily=Helvetica;html=1;rounded=1;shadow=0;comic=0;labelBackgroundColor=none;strokeWidth=1;fillColor=#21C0A5;strokeColor=#006658;fontColor=#5C5C5C;" parent="1" vertex="1">
          <mxGeometry x="-66" y="1499" width="202" height="27" as="geometry" />
        </mxCell>
        <mxCell id="node93" value="&lt;p style=&quot;margin:0px;margin-top:4px;text-align:center;&quot;&gt;&lt;i&gt;&amp;lt;&amp;lt;interface&amp;gt;&amp;gt;&lt;/i&gt;&lt;br/&gt;&lt;b&gt;GeneratePdfService&lt;/b&gt;&lt;/p&gt;&lt;hr size=&quot;1&quot;/&gt;" style="verticalAlign=top;align=left;overflow=fill;fontSize=14;fontFamily=Helvetica;html=1;rounded=1;shadow=0;comic=0;labelBackgroundColor=none;strokeWidth=1;fillColor=#21C0A5;strokeColor=#006658;fontColor=#5C5C5C;" parent="1" vertex="1">
          <mxGeometry x="349" y="1719" width="172" height="31" as="geometry" />
        </mxCell>
        <mxCell id="node149" value="&lt;p style=&quot;margin:0px;margin-top:4px;text-align:center;&quot;&gt;&lt;b&gt;GlobalController&lt;/b&gt;&lt;/p&gt;&lt;hr size=&quot;1&quot;/&gt;" style="verticalAlign=top;align=left;overflow=fill;fontSize=14;fontFamily=Helvetica;html=1;rounded=1;shadow=0;comic=0;labelBackgroundColor=none;strokeWidth=1;fillColor=#21C0A5;strokeColor=#006658;fontColor=#5C5C5C;" parent="1" vertex="1">
          <mxGeometry x="60" y="319" width="151" height="27" as="geometry" />
        </mxCell>
        <mxCell id="node56" value="&lt;p style=&quot;margin:0px;margin-top:4px;text-align:center;&quot;&gt;&lt;b&gt;GlobalExceptionHandler&lt;/b&gt;&lt;/p&gt;&lt;hr size=&quot;1&quot;/&gt;" style="verticalAlign=top;align=left;overflow=fill;fontSize=14;fontFamily=Helvetica;html=1;rounded=1;shadow=0;comic=0;labelBackgroundColor=none;strokeWidth=1;fillColor=#21C0A5;strokeColor=#006658;fontColor=#5C5C5C;" parent="1" vertex="1">
          <mxGeometry x="416" y="1279" width="199" height="27" as="geometry" />
        </mxCell>
        <mxCell id="node15" value="&lt;p style=&quot;margin:0px;margin-top:4px;text-align:center;&quot;&gt;&lt;b&gt;GoogleAppCache&lt;/b&gt;&lt;/p&gt;&lt;hr size=&quot;1&quot;/&gt;" style="verticalAlign=top;align=left;overflow=fill;fontSize=14;fontFamily=Helvetica;html=1;rounded=1;shadow=0;comic=0;labelBackgroundColor=none;strokeWidth=1;fillColor=#21C0A5;strokeColor=#006658;fontColor=#5C5C5C;" parent="1" vertex="1">
          <mxGeometry x="760" y="1939" width="150" height="27" as="geometry" />
        </mxCell>
        <mxCell id="node62" value="&lt;p style=&quot;margin:0px;margin-top:4px;text-align:center;&quot;&gt;&lt;b&gt;GoogleAppScriptImpl&lt;/b&gt;&lt;/p&gt;&lt;hr size=&quot;1&quot;/&gt;" style="verticalAlign=top;align=left;overflow=fill;fontSize=14;fontFamily=Helvetica;html=1;rounded=1;shadow=0;comic=0;labelBackgroundColor=none;strokeWidth=1;fillColor=#21C0A5;strokeColor=#006658;fontColor=#5C5C5C;" parent="1" vertex="1">
          <mxGeometry x="205" y="2359" width="181" height="27" as="geometry" />
        </mxCell>
        <mxCell id="node58" value="&lt;p style=&quot;margin:0px;margin-top:4px;text-align:center;&quot;&gt;&lt;b&gt;GoogleConfiguration&lt;/b&gt;&lt;/p&gt;&lt;hr size=&quot;1&quot;/&gt;" style="verticalAlign=top;align=left;overflow=fill;fontSize=14;fontFamily=Helvetica;html=1;rounded=1;shadow=0;comic=0;labelBackgroundColor=none;strokeWidth=1;fillColor=#21C0A5;strokeColor=#006658;fontColor=#5C5C5C;" parent="1" vertex="1">
          <mxGeometry x="506" y="1939" width="179" height="27" as="geometry" />
        </mxCell>
        <mxCell id="node129" value="&lt;p style=&quot;margin:0px;margin-top:4px;text-align:center;&quot;&gt;&lt;b&gt;GoogleDriveController&lt;/b&gt;&lt;/p&gt;&lt;hr size=&quot;1&quot;/&gt;" style="verticalAlign=top;align=left;overflow=fill;fontSize=14;fontFamily=Helvetica;html=1;rounded=1;shadow=0;comic=0;labelBackgroundColor=none;strokeWidth=1;fillColor=#21C0A5;strokeColor=#006658;fontColor=#5C5C5C;" parent="1" vertex="1">
          <mxGeometry x="221" y="979" width="188" height="27" as="geometry" />
        </mxCell>
        <mxCell id="node121" value="&lt;p style=&quot;margin:0px;margin-top:4px;text-align:center;&quot;&gt;&lt;i&gt;&amp;lt;&amp;lt;interface&amp;gt;&amp;gt;&lt;/i&gt;&lt;br/&gt;&lt;b&gt;GoogleDriveService&lt;/b&gt;&lt;/p&gt;&lt;hr size=&quot;1&quot;/&gt;" style="verticalAlign=top;align=left;overflow=fill;fontSize=14;fontFamily=Helvetica;html=1;rounded=1;shadow=0;comic=0;labelBackgroundColor=none;strokeWidth=1;fillColor=#21C0A5;strokeColor=#006658;fontColor=#5C5C5C;" parent="1" vertex="1">
          <mxGeometry x="150" y="3199" width="171" height="31" as="geometry" />
        </mxCell>
        <mxCell id="node150" value="&lt;p style=&quot;margin:0px;margin-top:4px;text-align:center;&quot;&gt;&lt;b&gt;GoogleDriveServiceImpl&lt;/b&gt;&lt;/p&gt;&lt;hr size=&quot;1&quot;/&gt;" style="verticalAlign=top;align=left;overflow=fill;fontSize=14;fontFamily=Helvetica;html=1;rounded=1;shadow=0;comic=0;labelBackgroundColor=none;strokeWidth=1;fillColor=#21C0A5;strokeColor=#006658;fontColor=#5C5C5C;" parent="1" vertex="1">
          <mxGeometry x="97" y="3299" width="197" height="27" as="geometry" />
        </mxCell>
        <mxCell id="node7" value="&lt;p style=&quot;margin:0px;margin-top:4px;text-align:center;&quot;&gt;&lt;b&gt;GoogleScript&lt;/b&gt;&lt;/p&gt;&lt;hr size=&quot;1&quot;/&gt;" style="verticalAlign=top;align=left;overflow=fill;fontSize=14;fontFamily=Helvetica;html=1;rounded=1;shadow=0;comic=0;labelBackgroundColor=none;strokeWidth=1;fillColor=#21C0A5;strokeColor=#006658;fontColor=#5C5C5C;" parent="1" vertex="1">
          <mxGeometry x="570" y="599" width="130" height="27" as="geometry" />
        </mxCell>
        <mxCell id="node67" value="&lt;p style=&quot;margin:0px;margin-top:4px;text-align:center;&quot;&gt;&lt;b&gt;GoogleScriptController&lt;/b&gt;&lt;/p&gt;&lt;hr size=&quot;1&quot;/&gt;" style="verticalAlign=top;align=left;overflow=fill;fontSize=14;fontFamily=Helvetica;html=1;rounded=1;shadow=0;comic=0;labelBackgroundColor=none;strokeWidth=1;fillColor=#21C0A5;strokeColor=#006658;fontColor=#5C5C5C;" parent="1" vertex="1">
          <mxGeometry x="419" y="1119" width="192" height="27" as="geometry" />
        </mxCell>
        <mxCell id="node79" value="&lt;p style=&quot;margin:0px;margin-top:4px;text-align:center;&quot;&gt;&lt;b&gt;GoogleScriptNotVaildException&lt;/b&gt;&lt;/p&gt;&lt;hr size=&quot;1&quot;/&gt;" style="verticalAlign=top;align=left;overflow=fill;fontSize=14;fontFamily=Helvetica;html=1;rounded=1;shadow=0;comic=0;labelBackgroundColor=none;strokeWidth=1;fillColor=#21C0A5;strokeColor=#006658;fontColor=#5C5C5C;" parent="1" vertex="1">
          <mxGeometry x="213" y="3359" width="245" height="27" as="geometry" />
        </mxCell>
        <mxCell id="node104" value="&lt;p style=&quot;margin:0px;margin-top:4px;text-align:center;&quot;&gt;&lt;i&gt;&amp;lt;&amp;lt;interface&amp;gt;&amp;gt;&lt;/i&gt;&lt;br/&gt;&lt;b&gt;GoogleScriptRepository&lt;/b&gt;&lt;/p&gt;&lt;hr size=&quot;1&quot;/&gt;" style="verticalAlign=top;align=left;overflow=fill;fontSize=14;fontFamily=Helvetica;html=1;rounded=1;shadow=0;comic=0;labelBackgroundColor=none;strokeWidth=1;fillColor=#21C0A5;strokeColor=#006658;fontColor=#5C5C5C;" parent="1" vertex="1">
          <mxGeometry x="57" y="1339" width="197" height="31" as="geometry" />
        </mxCell>
        <mxCell id="node157" value="&lt;p style=&quot;margin:0px;margin-top:4px;text-align:center;&quot;&gt;&lt;b&gt;GoogleScriptRequest&lt;/b&gt;&lt;/p&gt;&lt;hr size=&quot;1&quot;/&gt;" style="verticalAlign=top;align=left;overflow=fill;fontSize=14;fontFamily=Helvetica;html=1;rounded=1;shadow=0;comic=0;labelBackgroundColor=none;strokeWidth=1;fillColor=#21C0A5;strokeColor=#006658;fontColor=#5C5C5C;" parent="1" vertex="1">
          <mxGeometry x="-35" y="2199" width="180" height="27" as="geometry" />
        </mxCell>
        <mxCell id="node34" value="&lt;p style=&quot;margin:0px;margin-top:4px;text-align:center;&quot;&gt;&lt;b&gt;GoogleScriptResponse&lt;/b&gt;&lt;/p&gt;&lt;hr size=&quot;1&quot;/&gt;" style="verticalAlign=top;align=left;overflow=fill;fontSize=14;fontFamily=Helvetica;html=1;rounded=1;shadow=0;comic=0;labelBackgroundColor=none;strokeWidth=1;fillColor=#21C0A5;strokeColor=#006658;fontColor=#5C5C5C;" parent="1" vertex="1">
          <mxGeometry x="540" y="1179" width="191" height="27" as="geometry" />
        </mxCell>
        <mxCell id="node131" value="&lt;p style=&quot;margin:0px;margin-top:4px;text-align:center;&quot;&gt;&lt;i&gt;&amp;lt;&amp;lt;interface&amp;gt;&amp;gt;&lt;/i&gt;&lt;br/&gt;&lt;b&gt;GoogleScriptService&lt;/b&gt;&lt;/p&gt;&lt;hr size=&quot;1&quot;/&gt;" style="verticalAlign=top;align=left;overflow=fill;fontSize=14;fontFamily=Helvetica;html=1;rounded=1;shadow=0;comic=0;labelBackgroundColor=none;strokeWidth=1;fillColor=#21C0A5;strokeColor=#006658;fontColor=#5C5C5C;" parent="1" vertex="1">
          <mxGeometry x="248" y="2199" width="175" height="31" as="geometry" />
        </mxCell>
        <mxCell id="node170" value="&lt;p style=&quot;margin:0px;margin-top:4px;text-align:center;&quot;&gt;&lt;b&gt;IdentificationDetails&lt;/b&gt;&lt;/p&gt;&lt;hr size=&quot;1&quot;/&gt;" style="verticalAlign=top;align=left;overflow=fill;fontSize=14;fontFamily=Helvetica;html=1;rounded=1;shadow=0;comic=0;labelBackgroundColor=none;strokeWidth=1;fillColor=#21C0A5;strokeColor=#006658;fontColor=#5C5C5C;" parent="1" vertex="1">
          <mxGeometry x="-132" y="599" width="174" height="27" as="geometry" />
        </mxCell>
        <mxCell id="node2" value="&lt;p style=&quot;margin:0px;margin-top:4px;text-align:center;&quot;&gt;&lt;i&gt;&amp;lt;&amp;lt;interface&amp;gt;&amp;gt;&lt;/i&gt;&lt;br/&gt;&lt;b&gt;IdentificationDetailsRepository&lt;/b&gt;&lt;/p&gt;&lt;hr size=&quot;1&quot;/&gt;" style="verticalAlign=top;align=left;overflow=fill;fontSize=14;fontFamily=Helvetica;html=1;rounded=1;shadow=0;comic=0;labelBackgroundColor=none;strokeWidth=1;fillColor=#21C0A5;strokeColor=#006658;fontColor=#5C5C5C;" parent="1" vertex="1">
          <mxGeometry x="679" y="3359" width="232" height="31" as="geometry" />
        </mxCell>
        <mxCell id="node9" value="&lt;p style=&quot;margin:0px;margin-top:4px;text-align:center;&quot;&gt;&lt;b&gt;ImageResponse&lt;/b&gt;&lt;/p&gt;&lt;hr size=&quot;1&quot;/&gt;" style="verticalAlign=top;align=left;overflow=fill;fontSize=14;fontFamily=Helvetica;html=1;rounded=1;shadow=0;comic=0;labelBackgroundColor=none;strokeWidth=1;fillColor=#21C0A5;strokeColor=#006658;fontColor=#5C5C5C;" parent="1" vertex="1">
          <mxGeometry x="561" y="2679" width="148" height="27" as="geometry" />
        </mxCell>
        <mxCell id="node84" value="&lt;p style=&quot;margin:0px;margin-top:4px;text-align:center;&quot;&gt;&lt;i&gt;&amp;lt;&amp;lt;interface&amp;gt;&amp;gt;&lt;/i&gt;&lt;br/&gt;&lt;b&gt;JasperReportService&lt;/b&gt;&lt;/p&gt;&lt;hr size=&quot;1&quot;/&gt;" style="verticalAlign=top;align=left;overflow=fill;fontSize=14;fontFamily=Helvetica;html=1;rounded=1;shadow=0;comic=0;labelBackgroundColor=none;strokeWidth=1;fillColor=#21C0A5;strokeColor=#006658;fontColor=#5C5C5C;" parent="1" vertex="1">
          <mxGeometry x="106" y="1719" width="178" height="31" as="geometry" />
        </mxCell>
        <mxCell id="node76" value="&lt;p style=&quot;margin:0px;margin-top:4px;text-align:center;&quot;&gt;&lt;b&gt;JasperReportServiceImpl&lt;/b&gt;&lt;/p&gt;&lt;hr size=&quot;1&quot;/&gt;" style="verticalAlign=top;align=left;overflow=fill;fontSize=14;fontFamily=Helvetica;html=1;rounded=1;shadow=0;comic=0;labelBackgroundColor=none;strokeWidth=1;fillColor=#21C0A5;strokeColor=#006658;fontColor=#5C5C5C;" parent="1" vertex="1">
          <mxGeometry x="94" y="1879" width="203" height="27" as="geometry" />
        </mxCell>
        <mxCell id="node100" value="&lt;p style=&quot;margin:0px;margin-top:4px;text-align:center;&quot;&gt;&lt;b&gt;JwtAuthenticationFilter&lt;/b&gt;&lt;/p&gt;&lt;hr size=&quot;1&quot;/&gt;" style="verticalAlign=top;align=left;overflow=fill;fontSize=14;fontFamily=Helvetica;html=1;rounded=1;shadow=0;comic=0;labelBackgroundColor=none;strokeWidth=1;fillColor=#21C0A5;strokeColor=#006658;fontColor=#5C5C5C;" parent="1" vertex="1">
          <mxGeometry x="518" y="1579" width="194" height="27" as="geometry" />
        </mxCell>
        <mxCell id="node45" value="&lt;p style=&quot;margin:0px;margin-top:4px;text-align:center;&quot;&gt;&lt;b&gt;JwtAuthenticationResponse&lt;/b&gt;&lt;/p&gt;&lt;hr size=&quot;1&quot;/&gt;" style="verticalAlign=top;align=left;overflow=fill;fontSize=14;fontFamily=Helvetica;html=1;rounded=1;shadow=0;comic=0;labelBackgroundColor=none;strokeWidth=1;fillColor=#21C0A5;strokeColor=#006658;fontColor=#5C5C5C;" parent="1" vertex="1">
          <mxGeometry x="383" y="2739" width="224" height="27" as="geometry" />
        </mxCell>
        <mxCell id="node86" value="&lt;p style=&quot;margin:0px;margin-top:4px;text-align:center;&quot;&gt;&lt;i&gt;&amp;lt;&amp;lt;interface&amp;gt;&amp;gt;&lt;/i&gt;&lt;br/&gt;&lt;b&gt;JwtService&lt;/b&gt;&lt;/p&gt;&lt;hr size=&quot;1&quot;/&gt;" style="verticalAlign=top;align=left;overflow=fill;fontSize=14;fontFamily=Helvetica;html=1;rounded=1;shadow=0;comic=0;labelBackgroundColor=none;strokeWidth=1;fillColor=#21C0A5;strokeColor=#006658;fontColor=#5C5C5C;" parent="1" vertex="1">
          <mxGeometry x="216" y="1119" width="118" height="31" as="geometry" />
        </mxCell>
        <mxCell id="node106" value="&lt;p style=&quot;margin:0px;margin-top:4px;text-align:center;&quot;&gt;&lt;b&gt;JwtServiceImpl&lt;/b&gt;&lt;/p&gt;&lt;hr size=&quot;1&quot;/&gt;" style="verticalAlign=top;align=left;overflow=fill;fontSize=14;fontFamily=Helvetica;html=1;rounded=1;shadow=0;comic=0;labelBackgroundColor=none;strokeWidth=1;fillColor=#21C0A5;strokeColor=#006658;fontColor=#5C5C5C;" parent="1" vertex="1">
          <mxGeometry x="204" y="1279" width="143" height="27" as="geometry" />
        </mxCell>
        <mxCell id="node60" value="&lt;p style=&quot;margin:0px;margin-top:4px;text-align:center;&quot;&gt;&lt;b&gt;KafkaProducerConfig&lt;/b&gt;&lt;/p&gt;&lt;hr size=&quot;1&quot;/&gt;" style="verticalAlign=top;align=left;overflow=fill;fontSize=14;fontFamily=Helvetica;html=1;rounded=1;shadow=0;comic=0;labelBackgroundColor=none;strokeWidth=1;fillColor=#21C0A5;strokeColor=#006658;fontColor=#5C5C5C;" parent="1" vertex="1">
          <mxGeometry x="104" y="739" width="182" height="27" as="geometry" />
        </mxCell>
        <mxCell id="node158" value="&lt;p style=&quot;margin:0px;margin-top:4px;text-align:center;&quot;&gt;&lt;b&gt;LoadEnvConfiguration&lt;/b&gt;&lt;/p&gt;&lt;hr size=&quot;1&quot;/&gt;" style="verticalAlign=top;align=left;overflow=fill;fontSize=14;fontFamily=Helvetica;html=1;rounded=1;shadow=0;comic=0;labelBackgroundColor=none;strokeWidth=1;fillColor=#21C0A5;strokeColor=#006658;fontColor=#5C5C5C;" parent="1" vertex="1">
          <mxGeometry x="-19" y="979" width="189" height="27" as="geometry" />
        </mxCell>
        <mxCell id="node52" value="&lt;p style=&quot;margin:0px;margin-top:4px;text-align:center;&quot;&gt;&lt;b&gt;LogDirectoryInitializer&lt;/b&gt;&lt;/p&gt;&lt;hr size=&quot;1&quot;/&gt;" style="verticalAlign=top;align=left;overflow=fill;fontSize=14;fontFamily=Helvetica;html=1;rounded=1;shadow=0;comic=0;labelBackgroundColor=none;strokeWidth=1;fillColor=#21C0A5;strokeColor=#006658;fontColor=#5C5C5C;" parent="1" vertex="1">
          <mxGeometry x="542" y="1339" width="186" height="27" as="geometry" />
        </mxCell>
        <mxCell id="node163" value="&lt;p style=&quot;margin:0px;margin-top:4px;text-align:center;&quot;&gt;&lt;b&gt;LogEvent&lt;/b&gt;&lt;/p&gt;&lt;hr size=&quot;1&quot;/&gt;" style="verticalAlign=top;align=left;overflow=fill;fontSize=14;fontFamily=Helvetica;html=1;rounded=1;shadow=0;comic=0;labelBackgroundColor=none;strokeWidth=1;fillColor=#21C0A5;strokeColor=#006658;fontColor=#5C5C5C;" parent="1" vertex="1">
          <mxGeometry x="-139" y="39" width="109" height="27" as="geometry" />
        </mxCell>
        <mxCell id="node172" value="&lt;p style=&quot;margin:0px;margin-top:4px;text-align:center;&quot;&gt;&lt;b&gt;LogEventListener&lt;/b&gt;&lt;/p&gt;&lt;hr size=&quot;1&quot;/&gt;" style="verticalAlign=top;align=left;overflow=fill;fontSize=14;fontFamily=Helvetica;html=1;rounded=1;shadow=0;comic=0;labelBackgroundColor=none;strokeWidth=1;fillColor=#21C0A5;strokeColor=#006658;fontColor=#5C5C5C;" parent="1" vertex="1">
          <mxGeometry x="-144" y="319" width="158" height="27" as="geometry" />
        </mxCell>
        <mxCell id="node126" value="&lt;p style=&quot;margin:0px;margin-top:4px;text-align:center;&quot;&gt;&lt;b&gt;LogProducerService&lt;/b&gt;&lt;/p&gt;&lt;hr size=&quot;1&quot;/&gt;" style="verticalAlign=top;align=left;overflow=fill;fontSize=14;fontFamily=Helvetica;html=1;rounded=1;shadow=0;comic=0;labelBackgroundColor=none;strokeWidth=1;fillColor=#21C0A5;strokeColor=#006658;fontColor=#5C5C5C;" parent="1" vertex="1">
          <mxGeometry x="28" y="3139" width="174" height="27" as="geometry" />
        </mxCell>
        <mxCell id="node73" value="&lt;p style=&quot;margin:0px;margin-top:4px;text-align:center;&quot;&gt;&lt;b&gt;MessageRequest&lt;/b&gt;&lt;/p&gt;&lt;hr size=&quot;1&quot;/&gt;" style="verticalAlign=top;align=left;overflow=fill;fontSize=14;fontFamily=Helvetica;html=1;rounded=1;shadow=0;comic=0;labelBackgroundColor=none;strokeWidth=1;fillColor=#21C0A5;strokeColor=#006658;fontColor=#5C5C5C;" parent="1" vertex="1">
          <mxGeometry x="258" y="319" width="155" height="27" as="geometry" />
        </mxCell>
        <mxCell id="node123" value="&lt;p style=&quot;margin:0px;margin-top:4px;text-align:center;&quot;&gt;&lt;i&gt;&amp;lt;&amp;lt;annotation&amp;gt;&amp;gt;&lt;/i&gt;&lt;br/&gt;&lt;b&gt;MyDateFormat&lt;/b&gt;&lt;/p&gt;&lt;hr size=&quot;1&quot;/&gt;" style="verticalAlign=top;align=left;overflow=fill;fontSize=14;fontFamily=Helvetica;html=1;rounded=1;shadow=0;comic=0;labelBackgroundColor=none;strokeWidth=1;fillColor=#21C0A5;strokeColor=#006658;fontColor=#5C5C5C;" parent="1" vertex="1">
          <mxGeometry x="164" y="119" width="142" height="31" as="geometry" />
        </mxCell>
        <mxCell id="node141" value="&lt;p style=&quot;margin:0px;margin-top:4px;text-align:center;&quot;&gt;&lt;b&gt;MyDateFormatAspect&lt;/b&gt;&lt;/p&gt;&lt;hr size=&quot;1&quot;/&gt;" style="verticalAlign=top;align=left;overflow=fill;fontSize=14;fontFamily=Helvetica;html=1;rounded=1;shadow=0;comic=0;labelBackgroundColor=none;strokeWidth=1;fillColor=#21C0A5;strokeColor=#006658;fontColor=#5C5C5C;" parent="1" vertex="1">
          <mxGeometry x="-17" y="879" width="185" height="27" as="geometry" />
        </mxCell>
        <mxCell id="node145" value="&lt;p style=&quot;margin:0px;margin-top:4px;text-align:center;&quot;&gt;&lt;b&gt;MyFileNotFoundException&lt;/b&gt;&lt;/p&gt;&lt;hr size=&quot;1&quot;/&gt;" style="verticalAlign=top;align=left;overflow=fill;fontSize=14;fontFamily=Helvetica;html=1;rounded=1;shadow=0;comic=0;labelBackgroundColor=none;strokeWidth=1;fillColor=#21C0A5;strokeColor=#006658;fontColor=#5C5C5C;" parent="1" vertex="1">
          <mxGeometry x="148" y="1639" width="214" height="27" as="geometry" />
        </mxCell>
        <mxCell id="node118" value="&lt;p style=&quot;margin:0px;margin-top:4px;text-align:center;&quot;&gt;&lt;b&gt;NotificationService&lt;/b&gt;&lt;/p&gt;&lt;hr size=&quot;1&quot;/&gt;" style="verticalAlign=top;align=left;overflow=fill;fontSize=14;fontFamily=Helvetica;html=1;rounded=1;shadow=0;comic=0;labelBackgroundColor=none;strokeWidth=1;fillColor=#21C0A5;strokeColor=#006658;fontColor=#5C5C5C;" parent="1" vertex="1">
          <mxGeometry x="112" y="599" width="167" height="27" as="geometry" />
        </mxCell>
        <mxCell id="node65" value="&lt;p style=&quot;margin:0px;margin-top:4px;text-align:center;&quot;&gt;&lt;b&gt;NumberToWordsConverter&lt;/b&gt;&lt;/p&gt;&lt;hr size=&quot;1&quot;/&gt;" style="verticalAlign=top;align=left;overflow=fill;fontSize=14;fontFamily=Helvetica;html=1;rounded=1;shadow=0;comic=0;labelBackgroundColor=none;strokeWidth=1;fillColor=#21C0A5;strokeColor=#006658;fontColor=#5C5C5C;" parent="1" vertex="1">
          <mxGeometry x="347" y="1879" width="216" height="27" as="geometry" />
        </mxCell>
        <mxCell id="node156" value="&lt;p style=&quot;margin:0px;margin-top:4px;text-align:center;&quot;&gt;&lt;b&gt;PdfGenerateController&lt;/b&gt;&lt;/p&gt;&lt;hr size=&quot;1&quot;/&gt;" style="verticalAlign=top;align=left;overflow=fill;fontSize=14;fontFamily=Helvetica;html=1;rounded=1;shadow=0;comic=0;labelBackgroundColor=none;strokeWidth=1;fillColor=#21C0A5;strokeColor=#006658;fontColor=#5C5C5C;" parent="1" vertex="1">
          <mxGeometry x="101" y="1039" width="189" height="27" as="geometry" />
        </mxCell>
        <mxCell id="node134" value="&lt;p style=&quot;margin:0px;margin-top:4px;text-align:center;&quot;&gt;&lt;b&gt;PdfGeneratorService&lt;/b&gt;&lt;/p&gt;&lt;hr size=&quot;1&quot;/&gt;" style="verticalAlign=top;align=left;overflow=fill;fontSize=14;fontFamily=Helvetica;html=1;rounded=1;shadow=0;comic=0;labelBackgroundColor=none;strokeWidth=1;fillColor=#21C0A5;strokeColor=#006658;fontColor=#5C5C5C;" parent="1" vertex="1">
          <mxGeometry x="-14" y="1779" width="178" height="27" as="geometry" />
        </mxCell>
        <mxCell id="node57" value="&lt;p style=&quot;margin:0px;margin-top:4px;text-align:center;&quot;&gt;&lt;b&gt;PdfGeneratorServiceImpl&lt;/b&gt;&lt;/p&gt;&lt;hr size=&quot;1&quot;/&gt;" style="verticalAlign=top;align=left;overflow=fill;fontSize=14;fontFamily=Helvetica;html=1;rounded=1;shadow=0;comic=0;labelBackgroundColor=none;strokeWidth=1;fillColor=#21C0A5;strokeColor=#006658;fontColor=#5C5C5C;" parent="1" vertex="1">
          <mxGeometry x="614" y="1879" width="203" height="27" as="geometry" />
        </mxCell>
        <mxCell id="node102" value="&lt;p style=&quot;margin:0px;margin-top:4px;text-align:center;&quot;&gt;&lt;i&gt;&amp;lt;&amp;lt;interface&amp;gt;&amp;gt;&lt;/i&gt;&lt;br/&gt;&lt;b&gt;PrintService&lt;T&gt;&lt;/b&gt;&lt;/p&gt;&lt;hr size=&quot;1&quot;/&gt;" style="verticalAlign=top;align=left;overflow=fill;fontSize=14;fontFamily=Helvetica;html=1;rounded=1;shadow=0;comic=0;labelBackgroundColor=none;strokeWidth=1;fillColor=#21C0A5;strokeColor=#006658;fontColor=#5C5C5C;" parent="1" vertex="1">
          <mxGeometry x="240" y="1939" width="151" height="31" as="geometry" />
        </mxCell>
        <mxCell id="node128" value="&lt;p style=&quot;margin:0px;margin-top:4px;text-align:center;&quot;&gt;&lt;b&gt;PropertiesController&lt;/b&gt;&lt;/p&gt;&lt;hr size=&quot;1&quot;/&gt;" style="verticalAlign=top;align=left;overflow=fill;fontSize=14;fontFamily=Helvetica;html=1;rounded=1;shadow=0;comic=0;labelBackgroundColor=none;strokeWidth=1;fillColor=#21C0A5;strokeColor=#006658;fontColor=#5C5C5C;" parent="1" vertex="1">
          <mxGeometry x="28" y="2679" width="175" height="27" as="geometry" />
        </mxCell>
        <mxCell id="node53" value="&lt;p style=&quot;margin:0px;margin-top:4px;text-align:center;&quot;&gt;&lt;b&gt;RateLimitAspect&lt;/b&gt;&lt;/p&gt;&lt;hr size=&quot;1&quot;/&gt;" style="verticalAlign=top;align=left;overflow=fill;fontSize=14;fontFamily=Helvetica;html=1;rounded=1;shadow=0;comic=0;labelBackgroundColor=none;strokeWidth=1;fillColor=#21C0A5;strokeColor=#006658;fontColor=#5C5C5C;" parent="1" vertex="1">
          <mxGeometry x="560" y="1439" width="150" height="27" as="geometry" />
        </mxCell>
        <mxCell id="node66" value="&lt;p style=&quot;margin:0px;margin-top:4px;text-align:center;&quot;&gt;&lt;b&gt;RateLimitConfig&lt;/b&gt;&lt;/p&gt;&lt;hr size=&quot;1&quot;/&gt;" style="verticalAlign=top;align=left;overflow=fill;fontSize=14;fontFamily=Helvetica;html=1;rounded=1;shadow=0;comic=0;labelBackgroundColor=none;strokeWidth=1;fillColor=#21C0A5;strokeColor=#006658;fontColor=#5C5C5C;" parent="1" vertex="1">
          <mxGeometry x="361" y="259" width="149" height="27" as="geometry" />
        </mxCell>
        <mxCell id="node49" value="&lt;p style=&quot;margin:0px;margin-top:4px;text-align:center;&quot;&gt;&lt;b&gt;RateLimitExceededException&lt;/b&gt;&lt;/p&gt;&lt;hr size=&quot;1&quot;/&gt;" style="verticalAlign=top;align=left;overflow=fill;fontSize=14;fontFamily=Helvetica;html=1;rounded=1;shadow=0;comic=0;labelBackgroundColor=none;strokeWidth=1;fillColor=#21C0A5;strokeColor=#006658;fontColor=#5C5C5C;" parent="1" vertex="1">
          <mxGeometry x="241" y="2979" width="229" height="27" as="geometry" />
        </mxCell>
        <mxCell id="node10" value="&lt;p style=&quot;margin:0px;margin-top:4px;text-align:center;&quot;&gt;&lt;i&gt;&amp;lt;&amp;lt;annotation&amp;gt;&amp;gt;&lt;/i&gt;&lt;br/&gt;&lt;b&gt;RateLimited&lt;/b&gt;&lt;/p&gt;&lt;hr size=&quot;1&quot;/&gt;" style="verticalAlign=top;align=left;overflow=fill;fontSize=14;fontFamily=Helvetica;html=1;rounded=1;shadow=0;comic=0;labelBackgroundColor=none;strokeWidth=1;fillColor=#21C0A5;strokeColor=#006658;fontColor=#5C5C5C;" parent="1" vertex="1">
          <mxGeometry x="494" y="39" width="122" height="31" as="geometry" />
        </mxCell>
        <mxCell id="node105" value="&lt;p style=&quot;margin:0px;margin-top:4px;text-align:center;&quot;&gt;&lt;b&gt;RecaptchaService&lt;/b&gt;&lt;/p&gt;&lt;hr size=&quot;1&quot;/&gt;" style="verticalAlign=top;align=left;overflow=fill;fontSize=14;fontFamily=Helvetica;html=1;rounded=1;shadow=0;comic=0;labelBackgroundColor=none;strokeWidth=1;fillColor=#21C0A5;strokeColor=#006658;fontColor=#5C5C5C;" parent="1" vertex="1">
          <mxGeometry x="155" y="399" width="160" height="27" as="geometry" />
        </mxCell>
        <mxCell id="node92" value="&lt;p style=&quot;margin:0px;margin-top:4px;text-align:center;&quot;&gt;&lt;b&gt;RecaptchaUtil&lt;/b&gt;&lt;/p&gt;&lt;hr size=&quot;1&quot;/&gt;" style="verticalAlign=top;align=left;overflow=fill;fontSize=14;fontFamily=Helvetica;html=1;rounded=1;shadow=0;comic=0;labelBackgroundColor=none;strokeWidth=1;fillColor=#21C0A5;strokeColor=#006658;fontColor=#5C5C5C;" parent="1" vertex="1">
          <mxGeometry x="267" y="179" width="136" height="27" as="geometry" />
        </mxCell>
        <mxCell id="node120" value="&lt;p style=&quot;margin:0px;margin-top:4px;text-align:center;&quot;&gt;&lt;b&gt;ResourceNotFoundException&lt;/b&gt;&lt;/p&gt;&lt;hr size=&quot;1&quot;/&gt;" style="verticalAlign=top;align=left;overflow=fill;fontSize=14;fontFamily=Helvetica;html=1;rounded=1;shadow=0;comic=0;labelBackgroundColor=none;strokeWidth=1;fillColor=#21C0A5;strokeColor=#006658;fontColor=#5C5C5C;" parent="1" vertex="1">
          <mxGeometry x="260" y="3139" width="230" height="27" as="geometry" />
        </mxCell>
        <mxCell id="node12" value="&lt;p style=&quot;margin:0px;margin-top:4px;text-align:center;&quot;&gt;&lt;b&gt;RetryConfig&lt;/b&gt;&lt;/p&gt;&lt;hr size=&quot;1&quot;/&gt;" style="verticalAlign=top;align=left;overflow=fill;fontSize=14;fontFamily=Helvetica;html=1;rounded=1;shadow=0;comic=0;labelBackgroundColor=none;strokeWidth=1;fillColor=#21C0A5;strokeColor=#006658;fontColor=#5C5C5C;" parent="1" vertex="1">
          <mxGeometry x="413" y="-21" width="124" height="27" as="geometry" />
        </mxCell>
        <mxCell id="node51" value="&lt;p style=&quot;margin:0px;margin-top:4px;text-align:center;&quot;&gt;&lt;i&gt;&amp;lt;&amp;lt;enumeration&amp;gt;&amp;gt;&lt;/i&gt;&lt;br/&gt;&lt;b&gt;Role&lt;/b&gt;&lt;/p&gt;&lt;hr size=&quot;1&quot;/&gt;" style="verticalAlign=top;align=left;overflow=fill;fontSize=14;fontFamily=Helvetica;html=1;rounded=1;shadow=0;comic=0;labelBackgroundColor=none;strokeWidth=1;fillColor=#21C0A5;strokeColor=#006658;fontColor=#5C5C5C;" parent="1" vertex="1">
          <mxGeometry x="537" y="3359" width="77" height="31" as="geometry" />
        </mxCell>
        <mxCell id="node33" value="&lt;p style=&quot;margin:0px;margin-top:4px;text-align:center;&quot;&gt;&lt;b&gt;SalaryController&lt;/b&gt;&lt;/p&gt;&lt;hr size=&quot;1&quot;/&gt;" style="verticalAlign=top;align=left;overflow=fill;fontSize=14;fontFamily=Helvetica;html=1;rounded=1;shadow=0;comic=0;labelBackgroundColor=none;strokeWidth=1;fillColor=#21C0A5;strokeColor=#006658;fontColor=#5C5C5C;" parent="1" vertex="1">
          <mxGeometry x="580" y="1719" width="150" height="27" as="geometry" />
        </mxCell>
        <mxCell id="node91" value="&lt;p style=&quot;margin:0px;margin-top:4px;text-align:center;&quot;&gt;&lt;b&gt;SalaryExpose&lt;/b&gt;&lt;/p&gt;&lt;hr size=&quot;1&quot;/&gt;" style="verticalAlign=top;align=left;overflow=fill;fontSize=14;fontFamily=Helvetica;html=1;rounded=1;shadow=0;comic=0;labelBackgroundColor=none;strokeWidth=1;fillColor=#21C0A5;strokeColor=#006658;fontColor=#5C5C5C;" parent="1" vertex="1">
          <mxGeometry x="288" y="2899" width="134" height="27" as="geometry" />
        </mxCell>
        <mxCell id="node133" value="&lt;p style=&quot;margin:0px;margin-top:4px;text-align:center;&quot;&gt;&lt;b&gt;SalaryExposeController&lt;/b&gt;&lt;/p&gt;&lt;hr size=&quot;1&quot;/&gt;" style="verticalAlign=top;align=left;overflow=fill;fontSize=14;fontFamily=Helvetica;html=1;rounded=1;shadow=0;comic=0;labelBackgroundColor=none;strokeWidth=1;fillColor=#21C0A5;strokeColor=#006658;fontColor=#5C5C5C;" parent="1" vertex="1">
          <mxGeometry x="-22" y="1119" width="195" height="27" as="geometry" />
        </mxCell>
        <mxCell id="node35" value="&lt;p style=&quot;margin:0px;margin-top:4px;text-align:center;&quot;&gt;&lt;b&gt;SalaryExposeRequest&lt;/b&gt;&lt;/p&gt;&lt;hr size=&quot;1&quot;/&gt;" style="verticalAlign=top;align=left;overflow=fill;fontSize=14;fontFamily=Helvetica;html=1;rounded=1;shadow=0;comic=0;labelBackgroundColor=none;strokeWidth=1;fillColor=#21C0A5;strokeColor=#006658;fontColor=#5C5C5C;" parent="1" vertex="1">
          <mxGeometry x="424" y="2099" width="183" height="27" as="geometry" />
        </mxCell>
        <mxCell id="node20" value="&lt;p style=&quot;margin:0px;margin-top:4px;text-align:center;&quot;&gt;&lt;b&gt;SalaryExposeResponse&lt;/b&gt;&lt;/p&gt;&lt;hr size=&quot;1&quot;/&gt;" style="verticalAlign=top;align=left;overflow=fill;fontSize=14;fontFamily=Helvetica;html=1;rounded=1;shadow=0;comic=0;labelBackgroundColor=none;strokeWidth=1;fillColor=#21C0A5;strokeColor=#006658;fontColor=#5C5C5C;" parent="1" vertex="1">
          <mxGeometry x="578" y="3459" width="194" height="27" as="geometry" />
        </mxCell>
        <mxCell id="node31" value="&lt;p style=&quot;margin:0px;margin-top:4px;text-align:center;&quot;&gt;&lt;i&gt;&amp;lt;&amp;lt;interface&amp;gt;&amp;gt;&lt;/i&gt;&lt;br/&gt;&lt;b&gt;SalaryExposeService&lt;/b&gt;&lt;/p&gt;&lt;hr size=&quot;1&quot;/&gt;" style="verticalAlign=top;align=left;overflow=fill;fontSize=14;fontFamily=Helvetica;html=1;rounded=1;shadow=0;comic=0;labelBackgroundColor=none;strokeWidth=1;fillColor=#21C0A5;strokeColor=#006658;fontColor=#5C5C5C;" parent="1" vertex="1">
          <mxGeometry x="726" y="2199" width="178" height="31" as="geometry" />
        </mxCell>
        <mxCell id="node18" value="&lt;p style=&quot;margin:0px;margin-top:4px;text-align:center;&quot;&gt;&lt;b&gt;SalaryExposeServiceImpl&lt;/b&gt;&lt;/p&gt;&lt;hr size=&quot;1&quot;/&gt;" style="verticalAlign=top;align=left;overflow=fill;fontSize=14;fontFamily=Helvetica;html=1;rounded=1;shadow=0;comic=0;labelBackgroundColor=none;strokeWidth=1;fillColor=#21C0A5;strokeColor=#006658;fontColor=#5C5C5C;" parent="1" vertex="1">
          <mxGeometry x="713" y="2359" width="204" height="27" as="geometry" />
        </mxCell>
        <mxCell id="node68" value="&lt;p style=&quot;margin:0px;margin-top:4px;text-align:center;&quot;&gt;&lt;b&gt;SchedulerGoogleScript&lt;/b&gt;&lt;/p&gt;&lt;hr size=&quot;1&quot;/&gt;" style="verticalAlign=top;align=left;overflow=fill;fontSize=14;fontFamily=Helvetica;html=1;rounded=1;shadow=0;comic=0;labelBackgroundColor=none;strokeWidth=1;fillColor=#21C0A5;strokeColor=#006658;fontColor=#5C5C5C;" parent="1" vertex="1">
          <mxGeometry x="-16" y="679" width="183" height="27" as="geometry" />
        </mxCell>
        <mxCell id="node69" value="&lt;p style=&quot;margin:0px;margin-top:4px;text-align:center;&quot;&gt;&lt;b&gt;SecurityConfiguration&lt;/b&gt;&lt;/p&gt;&lt;hr size=&quot;1&quot;/&gt;" style="verticalAlign=top;align=left;overflow=fill;fontSize=14;fontFamily=Helvetica;html=1;rounded=1;shadow=0;comic=0;labelBackgroundColor=none;strokeWidth=1;fillColor=#21C0A5;strokeColor=#006658;fontColor=#5C5C5C;" parent="1" vertex="1">
          <mxGeometry x="463" y="879" width="185" height="27" as="geometry" />
        </mxCell>
        <mxCell id="node63" value="&lt;p style=&quot;margin:0px;margin-top:4px;text-align:center;&quot;&gt;&lt;b&gt;SendEmailService&lt;/b&gt;&lt;/p&gt;&lt;hr size=&quot;1&quot;/&gt;" style="verticalAlign=top;align=left;overflow=fill;fontSize=14;fontFamily=Helvetica;html=1;rounded=1;shadow=0;comic=0;labelBackgroundColor=none;strokeWidth=1;fillColor=#21C0A5;strokeColor=#006658;fontColor=#5C5C5C;" parent="1" vertex="1">
          <mxGeometry x="456" y="319" width="159" height="27" as="geometry" />
        </mxCell>
        <mxCell id="node55" value="&lt;p style=&quot;margin:0px;margin-top:4px;text-align:center;&quot;&gt;&lt;b&gt;SendLogServiceToConsumer&lt;/b&gt;&lt;/p&gt;&lt;hr size=&quot;1&quot;/&gt;" style="verticalAlign=top;align=left;overflow=fill;fontSize=14;fontFamily=Helvetica;html=1;rounded=1;shadow=0;comic=0;labelBackgroundColor=none;strokeWidth=1;fillColor=#21C0A5;strokeColor=#006658;fontColor=#5C5C5C;" parent="1" vertex="1">
          <mxGeometry x="381" y="2839" width="229" height="27" as="geometry" />
        </mxCell>
        <mxCell id="node166" value="&lt;p style=&quot;margin:0px;margin-top:4px;text-align:center;&quot;&gt;&lt;b&gt;SignUpRequest&lt;/b&gt;&lt;/p&gt;&lt;hr size=&quot;1&quot;/&gt;" style="verticalAlign=top;align=left;overflow=fill;fontSize=14;fontFamily=Helvetica;html=1;rounded=1;shadow=0;comic=0;labelBackgroundColor=none;strokeWidth=1;fillColor=#21C0A5;strokeColor=#006658;fontColor=#5C5C5C;" parent="1" vertex="1">
          <mxGeometry x="-37" y="119" width="145" height="27" as="geometry" />
        </mxCell>
        <mxCell id="node125" value="&lt;p style=&quot;margin:0px;margin-top:4px;text-align:center;&quot;&gt;&lt;b&gt;SigninRequest&lt;/b&gt;&lt;/p&gt;&lt;hr size=&quot;1&quot;/&gt;" style="verticalAlign=top;align=left;overflow=fill;fontSize=14;fontFamily=Helvetica;html=1;rounded=1;shadow=0;comic=0;labelBackgroundColor=none;strokeWidth=1;fillColor=#21C0A5;strokeColor=#006658;fontColor=#5C5C5C;" parent="1" vertex="1">
          <mxGeometry x="66" y="179" width="138" height="27" as="geometry" />
        </mxCell>
        <mxCell id="node89" value="&lt;p style=&quot;margin:0px;margin-top:4px;text-align:center;&quot;&gt;&lt;b&gt;SignupResponse&lt;/b&gt;&lt;/p&gt;&lt;hr size=&quot;1&quot;/&gt;" style="verticalAlign=top;align=left;overflow=fill;fontSize=14;fontFamily=Helvetica;html=1;rounded=1;shadow=0;comic=0;labelBackgroundColor=none;strokeWidth=1;fillColor=#21C0A5;strokeColor=#006658;fontColor=#5C5C5C;" parent="1" vertex="1">
          <mxGeometry x="158" y="259" width="154" height="27" as="geometry" />
        </mxCell>
        <mxCell id="node169" value="&lt;p style=&quot;margin:0px;margin-top:4px;text-align:center;&quot;&gt;&lt;b&gt;SwaggerConfig&lt;/b&gt;&lt;/p&gt;&lt;hr size=&quot;1&quot;/&gt;" style="verticalAlign=top;align=left;overflow=fill;fontSize=14;fontFamily=Helvetica;html=1;rounded=1;shadow=0;comic=0;labelBackgroundColor=none;strokeWidth=1;fillColor=#21C0A5;strokeColor=#006658;fontColor=#5C5C5C;" parent="1" vertex="1">
          <mxGeometry x="-138" y="179" width="146" height="27" as="geometry" />
        </mxCell>
        <mxCell id="node85" value="&lt;p style=&quot;margin:0px;margin-top:4px;text-align:center;&quot;&gt;&lt;b&gt;TaxCalculator&lt;/b&gt;&lt;/p&gt;&lt;hr size=&quot;1&quot;/&gt;" style="verticalAlign=top;align=left;overflow=fill;fontSize=14;fontFamily=Helvetica;html=1;rounded=1;shadow=0;comic=0;labelBackgroundColor=none;strokeWidth=1;fillColor=#21C0A5;strokeColor=#006658;fontColor=#5C5C5C;" parent="1" vertex="1">
          <mxGeometry x="92" y="-21" width="127" height="27" as="geometry" />
        </mxCell>
        <mxCell id="node148" value="&lt;p style=&quot;margin:0px;margin-top:4px;text-align:center;&quot;&gt;&lt;b&gt;TaxSlab&lt;/b&gt;&lt;/p&gt;&lt;hr size=&quot;1&quot;/&gt;" style="verticalAlign=top;align=left;overflow=fill;fontSize=14;fontFamily=Helvetica;html=1;rounded=1;shadow=0;comic=0;labelBackgroundColor=none;strokeWidth=1;fillColor=#21C0A5;strokeColor=#006658;fontColor=#5C5C5C;" parent="1" vertex="1">
          <mxGeometry x="226" y="1499" width="99" height="27" as="geometry" />
        </mxCell>
        <mxCell id="node3" value="&lt;p style=&quot;margin:0px;margin-top:4px;text-align:center;&quot;&gt;&lt;b&gt;TaxSlabController&lt;/b&gt;&lt;/p&gt;&lt;hr size=&quot;1&quot;/&gt;" style="verticalAlign=top;align=left;overflow=fill;fontSize=14;fontFamily=Helvetica;html=1;rounded=1;shadow=0;comic=0;labelBackgroundColor=none;strokeWidth=1;fillColor=#21C0A5;strokeColor=#006658;fontColor=#5C5C5C;" parent="1" vertex="1">
          <mxGeometry x="715" y="879" width="161" height="27" as="geometry" />
        </mxCell>
        <mxCell id="node44" value="&lt;p style=&quot;margin:0px;margin-top:4px;text-align:center;&quot;&gt;&lt;i&gt;&amp;lt;&amp;lt;interface&amp;gt;&amp;gt;&lt;/i&gt;&lt;br/&gt;&lt;b&gt;TaxSlabRepository&lt;/b&gt;&lt;/p&gt;&lt;hr size=&quot;1&quot;/&gt;" style="verticalAlign=top;align=left;overflow=fill;fontSize=14;fontFamily=Helvetica;html=1;rounded=1;shadow=0;comic=0;labelBackgroundColor=none;strokeWidth=1;fillColor=#21C0A5;strokeColor=#006658;fontColor=#5C5C5C;" parent="1" vertex="1">
          <mxGeometry x="352" y="399" width="166" height="31" as="geometry" />
        </mxCell>
        <mxCell id="node25" value="&lt;p style=&quot;margin:0px;margin-top:4px;text-align:center;&quot;&gt;&lt;b&gt;TaxSlabRequest&lt;/b&gt;&lt;/p&gt;&lt;hr size=&quot;1&quot;/&gt;" style="verticalAlign=top;align=left;overflow=fill;fontSize=14;fontFamily=Helvetica;html=1;rounded=1;shadow=0;comic=0;labelBackgroundColor=none;strokeWidth=1;fillColor=#21C0A5;strokeColor=#006658;fontColor=#5C5C5C;" parent="1" vertex="1">
          <mxGeometry x="561" y="1039" width="149" height="27" as="geometry" />
        </mxCell>
        <mxCell id="node82" value="&lt;p style=&quot;margin:0px;margin-top:4px;text-align:center;&quot;&gt;&lt;b&gt;TaxSlabResponse&lt;/b&gt;&lt;/p&gt;&lt;hr size=&quot;1&quot;/&gt;" style="verticalAlign=top;align=left;overflow=fill;fontSize=14;fontFamily=Helvetica;html=1;rounded=1;shadow=0;comic=0;labelBackgroundColor=none;strokeWidth=1;fillColor=#21C0A5;strokeColor=#006658;fontColor=#5C5C5C;" parent="1" vertex="1">
          <mxGeometry x="255" y="459" width="160" height="27" as="geometry" />
        </mxCell>
        <mxCell id="node127" value="&lt;p style=&quot;margin:0px;margin-top:4px;text-align:center;&quot;&gt;&lt;i&gt;&amp;lt;&amp;lt;interface&amp;gt;&amp;gt;&lt;/i&gt;&lt;br/&gt;&lt;b&gt;TaxSlabService&lt;/b&gt;&lt;/p&gt;&lt;hr size=&quot;1&quot;/&gt;" style="verticalAlign=top;align=left;overflow=fill;fontSize=14;fontFamily=Helvetica;html=1;rounded=1;shadow=0;comic=0;labelBackgroundColor=none;strokeWidth=1;fillColor=#21C0A5;strokeColor=#006658;fontColor=#5C5C5C;" parent="1" vertex="1">
          <mxGeometry x="363" y="819" width="144" height="31" as="geometry" />
        </mxCell>
        <mxCell id="node80" value="&lt;p style=&quot;margin:0px;margin-top:4px;text-align:center;&quot;&gt;&lt;b&gt;TaxSlabServiceImpl&lt;/b&gt;&lt;/p&gt;&lt;hr size=&quot;1&quot;/&gt;" style="verticalAlign=top;align=left;overflow=fill;fontSize=14;fontFamily=Helvetica;html=1;rounded=1;shadow=0;comic=0;labelBackgroundColor=none;strokeWidth=1;fillColor=#21C0A5;strokeColor=#006658;fontColor=#5C5C5C;" parent="1" vertex="1">
          <mxGeometry x="350" y="1039" width="170" height="27" as="geometry" />
        </mxCell>
        <mxCell id="node6" value="&lt;p style=&quot;margin:0px;margin-top:4px;text-align:center;&quot;&gt;&lt;b&gt;URLExtractor&lt;/b&gt;&lt;/p&gt;&lt;hr size=&quot;1&quot;/&gt;" style="verticalAlign=top;align=left;overflow=fill;fontSize=14;fontFamily=Helvetica;html=1;rounded=1;shadow=0;comic=0;labelBackgroundColor=none;strokeWidth=1;fillColor=#21C0A5;strokeColor=#006658;fontColor=#5C5C5C;" parent="1" vertex="1">
          <mxGeometry x="569" y="119" width="132" height="27" as="geometry" />
        </mxCell>
        <mxCell id="node164" value="&lt;p style=&quot;margin:0px;margin-top:4px;text-align:center;&quot;&gt;&lt;b&gt;Url&lt;/b&gt;&lt;/p&gt;&lt;hr size=&quot;1&quot;/&gt;" style="verticalAlign=top;align=left;overflow=fill;fontSize=14;fontFamily=Helvetica;html=1;rounded=1;shadow=0;comic=0;labelBackgroundColor=none;strokeWidth=1;fillColor=#21C0A5;strokeColor=#006658;fontColor=#5C5C5C;" parent="1" vertex="1">
          <mxGeometry x="-139" y="2579" width="68" height="27" as="geometry" />
        </mxCell>
        <mxCell id="node1" value="&lt;p style=&quot;margin:0px;margin-top:4px;text-align:center;&quot;&gt;&lt;b&gt;User&lt;/b&gt;&lt;/p&gt;&lt;hr size=&quot;1&quot;/&gt;" style="verticalAlign=top;align=left;overflow=fill;fontSize=14;fontFamily=Helvetica;html=1;rounded=1;shadow=0;comic=0;labelBackgroundColor=none;strokeWidth=1;fillColor=#21C0A5;strokeColor=#006658;fontColor=#5C5C5C;" parent="1" vertex="1">
          <mxGeometry x="720" y="3199" width="71" height="27" as="geometry" />
        </mxCell>
        <mxCell id="node97" value="&lt;p style=&quot;margin:0px;margin-top:4px;text-align:center;&quot;&gt;&lt;i&gt;&amp;lt;&amp;lt;interface&amp;gt;&amp;gt;&lt;/i&gt;&lt;br/&gt;&lt;b&gt;UserRepository&lt;/b&gt;&lt;/p&gt;&lt;hr size=&quot;1&quot;/&gt;" style="verticalAlign=top;align=left;overflow=fill;fontSize=14;fontFamily=Helvetica;html=1;rounded=1;shadow=0;comic=0;labelBackgroundColor=none;strokeWidth=1;fillColor=#21C0A5;strokeColor=#006658;fontColor=#5C5C5C;" parent="1" vertex="1">
          <mxGeometry x="202" y="3519" width="146" height="31" as="geometry" />
        </mxCell>
        <mxCell id="node17" value="&lt;p style=&quot;margin:0px;margin-top:4px;text-align:center;&quot;&gt;&lt;i&gt;&amp;lt;&amp;lt;interface&amp;gt;&amp;gt;&lt;/i&gt;&lt;br/&gt;&lt;b&gt;UserService&lt;/b&gt;&lt;/p&gt;&lt;hr size=&quot;1&quot;/&gt;" style="verticalAlign=top;align=left;overflow=fill;fontSize=14;fontFamily=Helvetica;html=1;rounded=1;shadow=0;comic=0;labelBackgroundColor=none;strokeWidth=1;fillColor=#21C0A5;strokeColor=#006658;fontColor=#5C5C5C;" parent="1" vertex="1">
          <mxGeometry x="593" y="3299" width="124" height="31" as="geometry" />
        </mxCell>
        <mxCell id="node101" value="&lt;p style=&quot;margin:0px;margin-top:4px;text-align:center;&quot;&gt;&lt;b&gt;UserServiceImpl&lt;/b&gt;&lt;/p&gt;&lt;hr size=&quot;1&quot;/&gt;" style="verticalAlign=top;align=left;overflow=fill;fontSize=14;fontFamily=Helvetica;html=1;rounded=1;shadow=0;comic=0;labelBackgroundColor=none;strokeWidth=1;fillColor=#21C0A5;strokeColor=#006658;fontColor=#5C5C5C;" parent="1" vertex="1">
          <mxGeometry x="720" y="3519" width="150" height="27" as="geometry" />
        </mxCell>
        <mxCell id="node4" value="&lt;p style=&quot;margin:0px;margin-top:4px;text-align:center;&quot;&gt;&lt;b&gt;Users&lt;/b&gt;&lt;/p&gt;&lt;hr size=&quot;1&quot;/&gt;" style="verticalAlign=top;align=left;overflow=fill;fontSize=14;fontFamily=Helvetica;html=1;rounded=1;shadow=0;comic=0;labelBackgroundColor=none;strokeWidth=1;fillColor=#21C0A5;strokeColor=#006658;fontColor=#5C5C5C;" parent="1" vertex="1">
          <mxGeometry x="692" y="2739" width="86" height="27" as="geometry" />
        </mxCell>
        <mxCell id="node139" value="&lt;p style=&quot;margin:0px;margin-top:4px;text-align:center;&quot;&gt;&lt;i&gt;&amp;lt;&amp;lt;annotation&amp;gt;&amp;gt;&lt;/i&gt;&lt;br/&gt;&lt;b&gt;ValidEmail&lt;/b&gt;&lt;/p&gt;&lt;hr size=&quot;1&quot;/&gt;" style="verticalAlign=top;align=left;overflow=fill;fontSize=14;fontFamily=Helvetica;html=1;rounded=1;shadow=0;comic=0;labelBackgroundColor=none;strokeWidth=1;fillColor=#21C0A5;strokeColor=#006658;fontColor=#5C5C5C;" parent="1" vertex="1">
          <mxGeometry x="138" y="819" width="114" height="31" as="geometry" />
        </mxCell>
        <mxCell id="node78" value="&lt;p style=&quot;margin:0px;margin-top:4px;text-align:center;&quot;&gt;&lt;b&gt;VideoCallResponse&lt;/b&gt;&lt;/p&gt;&lt;hr size=&quot;1&quot;/&gt;" style="verticalAlign=top;align=left;overflow=fill;fontSize=14;fontFamily=Helvetica;html=1;rounded=1;shadow=0;comic=0;labelBackgroundColor=none;strokeWidth=1;fillColor=#21C0A5;strokeColor=#006658;fontColor=#5C5C5C;" parent="1" vertex="1">
          <mxGeometry x="210" y="539" width="170" height="27" as="geometry" />
        </mxCell>
        <mxCell id="node21" value="&lt;p style=&quot;margin:0px;margin-top:4px;text-align:center;&quot;&gt;&lt;b&gt;VideoCallServiceImpl&lt;/b&gt;&lt;/p&gt;&lt;hr size=&quot;1&quot;/&gt;" style="verticalAlign=top;align=left;overflow=fill;fontSize=14;fontFamily=Helvetica;html=1;rounded=1;shadow=0;comic=0;labelBackgroundColor=none;strokeWidth=1;fillColor=#21C0A5;strokeColor=#006658;fontColor=#5C5C5C;" parent="1" vertex="1">
          <mxGeometry x="546" y="3139" width="179" height="27" as="geometry" />
        </mxCell>
        <mxCell id="node165" value="&lt;p style=&quot;margin:0px;margin-top:4px;text-align:center;&quot;&gt;&lt;b&gt;VideoCallingController&lt;/b&gt;&lt;/p&gt;&lt;hr size=&quot;1&quot;/&gt;" style="verticalAlign=top;align=left;overflow=fill;fontSize=14;fontFamily=Helvetica;html=1;rounded=1;shadow=0;comic=0;labelBackgroundColor=none;strokeWidth=1;fillColor=#21C0A5;strokeColor=#006658;fontColor=#5C5C5C;" parent="1" vertex="1">
          <mxGeometry x="-140" y="1039" width="190" height="27" as="geometry" />
        </mxCell>
        <mxCell id="node13" value="&lt;p style=&quot;margin:0px;margin-top:4px;text-align:center;&quot;&gt;&lt;i&gt;&amp;lt;&amp;lt;interface&amp;gt;&amp;gt;&lt;/i&gt;&lt;br/&gt;&lt;b&gt;VideoCallingService&lt;/b&gt;&lt;/p&gt;&lt;hr size=&quot;1&quot;/&gt;" style="verticalAlign=top;align=left;overflow=fill;fontSize=14;fontFamily=Helvetica;html=1;rounded=1;shadow=0;comic=0;labelBackgroundColor=none;strokeWidth=1;fillColor=#21C0A5;strokeColor=#006658;fontColor=#5C5C5C;" parent="1" vertex="1">
          <mxGeometry x="549" y="2979" width="173" height="31" as="geometry" />
        </mxCell>
        <mxCell id="edge16" value="" style="html=1;rounded=1;edgeStyle=orthogonalEdgeStyle;dashed=1;startArrow=none;endArrow=block;endSize=12;strokeColor=#006658;exitX=0.500;exitY=0.001;exitDx=0;exitDy=0;entryX=0.500;entryY=1.001;entryDx=0;entryDy=0;labelBackgroundColor=none;fontColor=default;" parent="1" source="node108" target="node116" edge="1">
          <mxGeometry width="50" height="50" relative="1" as="geometry">
            <Array as="points" />
          </mxGeometry>
        </mxCell>
        <mxCell id="edge5" value="" style="html=1;rounded=1;edgeStyle=orthogonalEdgeStyle;dashed=1;startArrow=none;endArrow=block;endSize=12;strokeColor=#006658;exitX=0.500;exitY=0.002;exitDx=0;exitDy=0;entryX=0.500;entryY=1.001;entryDx=0;entryDy=0;labelBackgroundColor=none;fontColor=default;" parent="1" source="node162" target="node143" edge="1">
          <mxGeometry width="50" height="50" relative="1" as="geometry">
            <Array as="points">
              <mxPoint x="575" y="3631" />
              <mxPoint x="155" y="3631" />
            </Array>
          </mxGeometry>
        </mxCell>
        <mxCell id="edge8" value="" style="html=1;rounded=1;edgeStyle=orthogonalEdgeStyle;dashed=1;startArrow=none;endArrow=block;endSize=12;strokeColor=#006658;exitX=0.500;exitY=0.002;exitDx=0;exitDy=0;entryX=0.500;entryY=1.001;entryDx=0;entryDy=0;labelBackgroundColor=none;fontColor=default;" parent="1" source="node77" target="node59" edge="1">
          <mxGeometry width="50" height="50" relative="1" as="geometry">
            <Array as="points">
              <mxPoint x="675" y="2491" />
              <mxPoint x="535" y="2491" />
            </Array>
          </mxGeometry>
        </mxCell>
        <mxCell id="edge12" value="" style="html=1;rounded=1;edgeStyle=orthogonalEdgeStyle;dashed=1;startArrow=none;endArrow=block;endSize=12;strokeColor=#006658;exitX=0.500;exitY=0.001;exitDx=0;exitDy=0;entryX=0.500;entryY=1.002;entryDx=0;entryDy=0;labelBackgroundColor=none;fontColor=default;" parent="1" source="node113" target="node72" edge="1">
          <mxGeometry width="50" height="50" relative="1" as="geometry">
            <Array as="points">
              <mxPoint x="155" y="1411" />
              <mxPoint x="375" y="1411" />
            </Array>
          </mxGeometry>
        </mxCell>
        <mxCell id="edge1" value="" style="html=1;rounded=1;edgeStyle=orthogonalEdgeStyle;dashed=1;startArrow=none;endArrow=block;endSize=12;strokeColor=#006658;exitX=0.500;exitY=0.001;exitDx=0;exitDy=0;entryX=0.500;entryY=1.001;entryDx=0;entryDy=0;labelBackgroundColor=none;fontColor=default;" parent="1" source="node140" target="node107" edge="1">
          <mxGeometry width="50" height="50" relative="1" as="geometry">
            <Array as="points">
              <mxPoint x="355" y="2651" />
              <mxPoint x="295" y="2651" />
            </Array>
          </mxGeometry>
        </mxCell>
        <mxCell id="edge7" value="" style="html=1;rounded=1;edgeStyle=orthogonalEdgeStyle;dashed=1;startArrow=none;endArrow=block;endSize=12;strokeColor=#006658;exitX=0.500;exitY=0.002;exitDx=0;exitDy=0;entryX=0.500;entryY=1.002;entryDx=0;entryDy=0;labelBackgroundColor=none;fontColor=default;" parent="1" source="node124" target="node117" edge="1">
          <mxGeometry width="50" height="50" relative="1" as="geometry">
            <Array as="points" />
          </mxGeometry>
        </mxCell>
        <mxCell id="edge17" value="" style="html=1;rounded=1;edgeStyle=orthogonalEdgeStyle;dashed=1;startArrow=none;endArrow=block;endSize=12;strokeColor=#006658;exitX=0.500;exitY=0.002;exitDx=0;exitDy=0;entryX=0.500;entryY=1.002;entryDx=0;entryDy=0;labelBackgroundColor=none;fontColor=default;" parent="1" source="node168" target="node42" edge="1">
          <mxGeometry width="50" height="50" relative="1" as="geometry">
            <Array as="points" />
          </mxGeometry>
        </mxCell>
        <mxCell id="edge15" value="" style="html=1;rounded=1;edgeStyle=orthogonalEdgeStyle;dashed=1;startArrow=none;endArrow=block;endSize=12;strokeColor=#006658;exitX=0.500;exitY=0.001;exitDx=0;exitDy=0;entryX=0.500;entryY=1.002;entryDx=0;entryDy=0;labelBackgroundColor=none;fontColor=default;" parent="1" source="node110" target="node102" edge="1">
          <mxGeometry width="50" height="50" relative="1" as="geometry">
            <Array as="points">
              <mxPoint x="395" y="2011" />
              <mxPoint x="315" y="2011" />
            </Array>
          </mxGeometry>
        </mxCell>
        <mxCell id="edge11" value="" style="html=1;rounded=1;edgeStyle=orthogonalEdgeStyle;dashed=1;startArrow=none;endArrow=block;endSize=12;strokeColor=#006658;exitX=0.500;exitY=0.002;exitDx=0;exitDy=0;entryX=0.500;entryY=1.002;entryDx=0;entryDy=0;labelBackgroundColor=none;fontColor=default;" parent="1" source="node46" target="node26" edge="1">
          <mxGeometry width="50" height="50" relative="1" as="geometry">
            <Array as="points" />
          </mxGeometry>
        </mxCell>
        <mxCell id="edge3" value="" style="html=1;rounded=1;edgeStyle=orthogonalEdgeStyle;dashed=1;startArrow=none;endArrow=block;endSize=12;strokeColor=#006658;exitX=0.500;exitY=0.001;exitDx=0;exitDy=0;entryX=0.500;entryY=1.001;entryDx=0;entryDy=0;labelBackgroundColor=none;fontColor=default;" parent="1" source="node62" target="node131" edge="1">
          <mxGeometry width="50" height="50" relative="1" as="geometry">
            <Array as="points">
              <mxPoint x="295" y="2331" />
              <mxPoint x="335" y="2331" />
            </Array>
          </mxGeometry>
        </mxCell>
        <mxCell id="edge10" value="" style="html=1;rounded=1;edgeStyle=orthogonalEdgeStyle;dashed=1;startArrow=none;endArrow=block;endSize=12;strokeColor=#006658;exitX=0.500;exitY=0.001;exitDx=0;exitDy=0;entryX=0.500;entryY=1.002;entryDx=0;entryDy=0;labelBackgroundColor=none;fontColor=default;" parent="1" source="node150" target="node121" edge="1">
          <mxGeometry width="50" height="50" relative="1" as="geometry">
            <Array as="points">
              <mxPoint x="195" y="3271" />
              <mxPoint x="235" y="3271" />
            </Array>
          </mxGeometry>
        </mxCell>
        <mxCell id="edge6" value="" style="html=1;rounded=1;edgeStyle=orthogonalEdgeStyle;dashed=1;startArrow=none;endArrow=block;endSize=12;strokeColor=#006658;exitX=0.500;exitY=0.001;exitDx=0;exitDy=0;entryX=0.500;entryY=1.001;entryDx=0;entryDy=0;labelBackgroundColor=none;fontColor=default;" parent="1" source="node76" target="node84" edge="1">
          <mxGeometry width="50" height="50" relative="1" as="geometry">
            <Array as="points" />
          </mxGeometry>
        </mxCell>
        <mxCell id="edge9" value="" style="html=1;rounded=1;edgeStyle=orthogonalEdgeStyle;dashed=1;startArrow=none;endArrow=block;endSize=12;strokeColor=#006658;exitX=0.500;exitY=0.001;exitDx=0;exitDy=0;entryX=0.500;entryY=1.001;entryDx=0;entryDy=0;labelBackgroundColor=none;fontColor=default;" parent="1" source="node106" target="node86" edge="1">
          <mxGeometry width="50" height="50" relative="1" as="geometry">
            <Array as="points" />
          </mxGeometry>
        </mxCell>
        <mxCell id="edge4" value="" style="html=1;rounded=1;edgeStyle=orthogonalEdgeStyle;dashed=1;startArrow=none;endArrow=block;endSize=12;strokeColor=#006658;exitX=0.500;exitY=0.001;exitDx=0;exitDy=0;entryX=0.500;entryY=1.001;entryDx=0;entryDy=0;labelBackgroundColor=none;fontColor=default;" parent="1" source="node57" target="node93" edge="1">
          <mxGeometry width="50" height="50" relative="1" as="geometry">
            <Array as="points">
              <mxPoint x="715" y="1851" />
              <mxPoint x="435" y="1851" />
            </Array>
          </mxGeometry>
        </mxCell>
        <mxCell id="edge13" value="" style="html=1;rounded=1;edgeStyle=orthogonalEdgeStyle;dashed=1;startArrow=none;endArrow=block;endSize=12;strokeColor=#006658;exitX=0.500;exitY=0.001;exitDx=0;exitDy=0;entryX=0.500;entryY=1.001;entryDx=0;entryDy=0;labelBackgroundColor=none;fontColor=default;" parent="1" source="node18" target="node31" edge="1">
          <mxGeometry width="50" height="50" relative="1" as="geometry">
            <Array as="points" />
          </mxGeometry>
        </mxCell>
        <mxCell id="edge2" value="" style="html=1;rounded=1;edgeStyle=orthogonalEdgeStyle;dashed=1;startArrow=none;endArrow=block;endSize=12;strokeColor=#006658;exitX=0.500;exitY=0.002;exitDx=0;exitDy=0;entryX=0.500;entryY=1.002;entryDx=0;entryDy=0;labelBackgroundColor=none;fontColor=default;" parent="1" source="node80" target="node127" edge="1">
          <mxGeometry width="50" height="50" relative="1" as="geometry">
            <Array as="points" />
          </mxGeometry>
        </mxCell>
        <mxCell id="edge14" value="" style="html=1;rounded=1;edgeStyle=orthogonalEdgeStyle;dashed=1;startArrow=none;endArrow=block;endSize=12;strokeColor=#006658;exitX=0.500;exitY=0.002;exitDx=0;exitDy=0;entryX=0.500;entryY=1.001;entryDx=0;entryDy=0;labelBackgroundColor=none;fontColor=default;" parent="1" source="node101" target="node17" edge="1">
          <mxGeometry width="50" height="50" relative="1" as="geometry">
            <Array as="points">
              <mxPoint x="795" y="3431" />
              <mxPoint x="655" y="3431" />
            </Array>
          </mxGeometry>
        </mxCell>
        <mxCell id="edge0" value="" style="html=1;rounded=1;edgeStyle=orthogonalEdgeStyle;dashed=1;startArrow=none;endArrow=block;endSize=12;strokeColor=#006658;exitX=0.500;exitY=0.001;exitDx=0;exitDy=0;entryX=0.500;entryY=1.001;entryDx=0;entryDy=0;labelBackgroundColor=none;fontColor=default;" parent="1" source="node21" target="node13" edge="1">
          <mxGeometry width="50" height="50" relative="1" as="geometry">
            <Array as="points" />
          </mxGeometry>
        </mxCell>
      </root>
    </mxGraphModel>
  </diagram>
</mxfile>
